<?xml version="1.0" encoding="UTF-8"?>
<svg id="_文字" xmlns="http://www.w3.org/2000/svg" version="1.1" viewBox="0 0 200 200">
  <!-- Generator: Adobe Illustrator 30.4.0, SVG Export Plug-In . SVG Version: 2.1.4 Build 226)  -->
  <defs>
    <style>
      .st0 {
        fill: #0148ce;
      }

      .st1 {
        fill: #e1975a;
      }

      .st2 {
        fill: #004c9a;
      }
    </style>
  </defs>
  <g>
    <g>
      <path class="st1" d="M86.4,172.31c-3.63.48-7.46.72-11.44.72-38.29,0-58.01-19.12-58.01-29.25,0-6.78,6.8-11.72,13.63-11.72,3.75,0,7.5,1.67,10.31,5.18,5.98,7.42,17.11,13.5,33.18,13.75,2.66,8.6,6.96,15.64,12.3,21.31h.02l.02.02h0Z"/>
      <path class="st1" d="M74.1,150.98c-16.05-.25-27.18-6.31-33.18-13.75-2.8-3.5-6.55-5.18-10.31-5.18-6.83,0-13.63,4.97-13.63,11.72,0,10.12,19.73,29.25,58.01,29.25,4,0,7.81-.25,11.44-.72-5.34-5.67-9.62-12.75-12.3-21.31h-.02l-.02-.02h0Z"/>
      <path class="st1" d="M134.34,128.39c0,11.66-5.98,23.45-17.27,32.03-7.29-2.7-13.63-8.45-16.75-17.64,4.86-4.72,6.37-10.43,6.37-13.75,0-5.73-2.74-11.78-8.55-16.9-1.01-.95-2.14-1.81-3.38-2.68-1.77-1.25-3.75-2.39-5.94-3.48-4.48-2.23-9.36-4.64-14.51-7.05-1.09-.55-2.23-1.09-3.34-1.59-5.75-2.64-11.71-5.28-17.58-7.6-20.65-8.23-30.07-22.85-30.07-37.06,0-19.92,18.33-39.07,50.72-39.07s50.94,13.56,50.94,23.22c0,6.19-5.85,11.95-13.15,11.95-3.5,0-7.5-1.44-11.02-4.92-4.48-4.33-12.45-9.48-27-9.48s-24.19,8.23-24.19,17.51c0,6.37,4.48,13.37,14.77,18.09,1.94.89,4.16,1.92,6.53,2.95,1.09.48,2.23.97,3.38,1.5,6.45,2.8,13.75,5.89,20.16,8.78,1.16.54,2.31,1.03,3.38,1.53,1.11.54,2.14,1.01,3.17,1.5,23.45,11.31,33.37,26.96,33.37,42.19h0l-.04-.04h0Z"/>
    </g>
    <g>
      <path class="st1" d="M86.4,172.31c-3.63.48-7.46.72-11.44.72-38.29,0-58.01-19.12-58.01-29.25,0-6.78,6.8-11.72,13.63-11.72,3.75,0,7.5,1.67,10.31,5.18,5.98,7.42,17.11,13.5,33.18,13.75,2.66,8.6,6.96,15.64,12.3,21.31h.02l.02.02h0Z"/>
      <path class="st1" d="M74.1,150.98c-16.05-.25-27.18-6.31-33.18-13.75-2.8-3.5-6.55-5.18-10.31-5.18-6.83,0-13.63,4.97-13.63,11.72,0,10.12,19.73,29.25,58.01,29.25,4,0,7.81-.25,11.44-.72-5.34-5.67-9.62-12.75-12.3-21.31h-.02l-.02-.02h0Z"/>
      <path class="st1" d="M134.34,128.39c0,11.66-5.98,23.45-17.27,32.03-7.29-2.7-13.63-8.45-16.75-17.64,4.86-4.72,6.37-10.43,6.37-13.75,0-5.73-2.74-11.78-8.55-16.9-1.01-.95-2.14-1.81-3.38-2.68-1.77-1.25-3.75-2.39-5.94-3.48-4.48-2.23-9.36-4.64-14.51-7.05-1.09-.55-2.23-1.09-3.34-1.59-5.75-2.64-11.71-5.28-17.58-7.6-20.65-8.23-30.07-22.85-30.07-37.06,0-19.92,18.33-39.07,50.72-39.07s50.94,13.56,50.94,23.22c0,6.19-5.85,11.95-13.15,11.95-3.5,0-7.5-1.44-11.02-4.92-4.48-4.33-12.45-9.48-27-9.48s-24.19,8.23-24.19,17.51c0,6.37,4.48,13.37,14.77,18.09,1.94.89,4.16,1.92,6.53,2.95,1.09.48,2.23.97,3.38,1.5,6.45,2.8,13.75,5.89,20.16,8.78,1.16.54,2.31,1.03,3.38,1.53,1.11.54,2.14,1.01,3.17,1.5,23.45,11.31,33.37,26.96,33.37,42.19h0l-.04-.04h0Z"/>
    </g>
  </g>
  <g>
    <g>
      <path d="M94.79,54.63c-.18,7.19-.37,14.36-.37,21.56,0,1.09,0,2.13.02,3.2-3.9-1.75-8.08-3.53-12.14-5.31-2.78-1.22-5.46-2.37-7.99-3.48-.09-5.42-.16-10.74-.33-15.98-.16-5.4,3.3-9.79,10.53-9.79,5.03,0,10.31,3.11,10.31,9.42v.39h-.03Z"/>
      <path d="M94.79,54.24c0-6.28-5.28-9.42-10.31-9.42-7.23,0-10.7,4.41-10.53,9.79.16,5.25.27,10.55.33,15.98,2.53,1.11,5.25,2.25,7.99,3.48,4.06,1.77,8.24,3.59,12.14,5.31-.02-1.09-.02-2.13-.02-3.2,0-7.19.16-14.36.37-21.56v-.39h.03Z"/>
      <path class="st2" d="M183.05,54.63c-.37,15.31-.54,27.84-.54,39.86,0,10.53.16,20.83.37,32.46.92,40.25-28.03,59.45-54.63,59.45-12.3,0-24.56-3.96-34.29-11.87-1.16-.89-2.23-1.89-3.3-2.93-5.58-5.4-10.07-12.29-12.99-20.63-.37-1.13-.74-2.31-1.03-3.48-1.59-5.67-2.47-11.98-2.47-18.9v-.89c.1-8.12.15-16.53.15-25.02,4.51,2.14,8.93,4.31,13.06,6.37,2.8,1.36,5.28,2.95,7.4,4.64.02,2.56.02,5.13.02,7.71v7.56c0,4.64.58,8.86,1.62,12.59.33,1.19.7,2.33,1.16,3.44,3.23,8.6,9.19,14.45,16.16,17.7,1.28.58,2.64,1.11,4,1.5,3.17,1.01,6.49,1.5,9.79,1.5,17,0,34.56-13.12,34.56-38.25,0-16.04.33-32.46.33-48.72,0-8.12-.16-16.26-.33-24.17-.18-8.35,6.86-9.79,10.47-9.79,5.25,0,10.47,3.11,10.47,9.42v.39h.02v.07Z"/>
    </g>
    <g>
      <path class="st0" d="M94.79,54.63c-.18,7.19-.37,14.36-.37,21.56,0,1.09,0,2.13.02,3.2-3.9-1.75-8.08-3.53-12.14-5.31-2.78-1.22-5.46-2.37-7.99-3.48-.09-5.42-.16-10.74-.33-15.98-.16-5.4,3.3-9.79,10.53-9.79,5.03,0,10.31,3.11,10.31,9.42v.39h-.03Z"/>
      <path class="st0" d="M94.79,54.24c0-6.28-5.28-9.42-10.31-9.42-7.23,0-10.7,4.41-10.53,9.79.16,5.25.27,10.55.33,15.98,2.53,1.11,5.25,2.25,7.99,3.48,4.06,1.77,8.24,3.59,12.14,5.31-.02-1.09-.02-2.13-.02-3.2,0-7.19.16-14.36.37-21.56v-.39h.03Z"/>
      <path class="st0" d="M183.05,54.63c-.37,15.31-.54,27.84-.54,39.86,0,10.53.16,20.83.37,32.46.92,40.25-28.03,59.45-54.63,59.45-12.3,0-24.56-3.96-34.29-11.87-1.16-.89-2.23-1.89-3.3-2.93-5.58-5.4-10.07-12.29-12.99-20.63-.37-1.13-.74-2.31-1.03-3.48-1.59-5.67-2.47-11.98-2.47-18.9v-.89c.1-8.12.15-16.53.15-25.02,4.51,2.14,8.93,4.31,13.06,6.37,2.8,1.36,5.28,2.95,7.4,4.64.02,2.56.02,5.13.02,7.71v7.56c0,4.64.58,8.86,1.62,12.59.33,1.19.7,2.33,1.16,3.44,3.23,8.6,9.19,14.45,16.16,17.7,1.28.58,2.64,1.11,4,1.5,3.17,1.01,6.49,1.5,9.79,1.5,17,0,34.56-13.12,34.56-38.25,0-16.04.33-32.46.33-48.72,0-8.12-.16-16.26-.33-24.17-.18-8.35,6.86-9.79,10.47-9.79,5.25,0,10.47,3.11,10.47,9.42v.39h.02v.07Z"/>
    </g>
  </g>
</svg>