<?xml version="1.0" encoding="UTF-8"?>
<svg id="_文字" data-name="文字" xmlns="http://www.w3.org/2000/svg" xmlns:xlink="http://www.w3.org/1999/xlink" viewBox="0 0 200 200">
  <defs>
    <style>
      .cls-1 {
        fill: #0148ce;
      }

      .cls-2 {
        fill: none;
        stroke: #fff;
        stroke-miterlimit: 10;
        stroke-width: 6px;
      }

      .cls-3 {
        fill: url(#_名称未設定グラデーション_373-4);
      }

      .cls-4 {
        fill: url(#_名称未設定グラデーション_373-2);
      }

      .cls-5 {
        fill: url(#_名称未設定グラデーション_373-3);
      }

      .cls-6 {
        fill: #fff;
      }

      .cls-7 {
        fill: #004c9a;
      }

      .cls-8 {
        fill: url(#_名称未設定グラデーション_373);
      }

      .cls-9 {
        fill: url(#_名称未設定グラデーション_95);
      }
    </style>
    <radialGradient id="_名称未設定グラデーション_95" data-name="名称未設定グラデーション 95" cx="92.34" cy="117.09" fx="92.34" fy="117.09" r="80" gradientTransform="translate(-23.11 -65.15) scale(1.35 1.39)" gradientUnits="userSpaceOnUse">
      <stop offset="0" stop-color="#ffbc00"/>
      <stop offset="0" stop-color="#fec90d"/>
      <stop offset="0" stop-color="#feda1d"/>
      <stop offset="0" stop-color="#fee628"/>
      <stop offset="0" stop-color="#feed2f"/>
      <stop offset="0" stop-color="#feef31"/>
      <stop offset=".1" stop-color="#f7d33c"/>
      <stop offset=".23" stop-color="#f1b847"/>
      <stop offset=".37" stop-color="#eca34f"/>
      <stop offset=".52" stop-color="#e99555"/>
      <stop offset=".71" stop-color="#e78c58"/>
      <stop offset="1" stop-color="#e78a5a"/>
    </radialGradient>
    <linearGradient id="_名称未設定グラデーション_373" data-name="名称未設定グラデーション 373" x1="160.84" y1="118.84" x2="173.78" y2="118.84" gradientUnits="userSpaceOnUse">
      <stop offset="0" stop-color="#fff"/>
      <stop offset=".04" stop-color="#fff"/>
      <stop offset=".28" stop-color="#fff"/>
      <stop offset="1" stop-color="#fff"/>
    </linearGradient>
    <linearGradient id="_名称未設定グラデーション_373-2" data-name="名称未設定グラデーション 373" x1="44.67" y1="54.75" x2="54.34" y2="54.75" xlink:href="#_名称未設定グラデーション_373"/>
    <linearGradient id="_名称未設定グラデーション_373-3" data-name="名称未設定グラデーション 373" x1="49.69" y1="149.95" x2="62.54" y2="149.95" xlink:href="#_名称未設定グラデーション_373"/>
    <linearGradient id="_名称未設定グラデーション_373-4" data-name="名称未設定グラデーション 373" x1="91.62" y1="59.22" x2="109.33" y2="59.22" xlink:href="#_名称未設定グラデーション_373"/>
  </defs>
  <rect class="cls-9" x="-6.48" y="-13.6" width="215.59" height="222.4"/>
  <path class="cls-2" d="M108.14,54.67c.84-.98.13-.34.84-.98.41-.37.98-.8,1.61-1.24,1.75-1.22,3.62-2.25,5.57-3.13l1.97-.9s20.72-9.84,31.68,10.5c13.53,25.09-7.25,52.95-13.62,59.92-.79.86-1.74,1.92-2.61,2.91-.96,1.1-1.96,2.15-2.99,3.18-3.47,3.45-11.23,10.96-19.66,17.58-5.95,4.68-10.99,7.72-18.15,10.21h0"/>
  <path class="cls-8" d="M173.97,118.84c-5.82.43-6.15.77-6.55,6.96-.4-6.18-.73-6.53-6.55-6.96,5.82-.43,6.15-.77,6.55-6.96.4,6.18.73,6.53,6.55,6.96Z"/>
  <path class="cls-6" d="M95.39,154.93c.01.07-1.64.62-1.77.67-3.9,1.34-5.88,1.66-8.93,1.9-4.37.36-9.2.04-13.65-1.03-2.62-.63-3.75-1.81-4.1-2.36-1.08-1.73.57-2.78,2.4-2.54,4.08.54,5.41,1.07,9.37.97,2.73-.07,5.17-.09,12.79-2.58l2.3-.82,1.58,5.78Z"/>
  <path class="cls-2" d="M45.1,58.2c-13.39,11.25-17.76,26.07-17.21,42.74.6,18.08,10.05,29.17,12.09,35.02,1.47,4.19-5.35,10.73-7.22,16.35-.24.72.3,1.49,1.02,1.47,4.88-.08,8.28.27,12.51-2.01"/>
  <path class="cls-2" d="M81.57,47.61c-9.98-2.99-16.69-1.57-26.76,3.62"/>
  <path class="cls-6" d="M82.06,44.78c.07-.29,2.66.9,2.92,1.04,1.39.71,3.07,1.92,4.08,3.03.7.76,2.19,1.79,3.38,5.38.55,1.66-.75,2.34-1.91,1.39-2.25-1.85-3.11-1.97-5.11-3.02-4.33-2.28-5.13-2.14-5.9-2.44-.25-.1-.26-.56-.14-.87l2.68-4.49Z"/>
  <path class="cls-4" d="M54.48,54.75c-4.35.32-4.59.58-4.9,5.2-.3-4.62-.54-4.88-4.9-5.2,4.35-.32,4.59-.58,4.9-5.2.3,4.62.54,4.88,4.9,5.2Z"/>
  <path class="cls-5" d="M62.72,149.95c-5.78.42-6.1.77-6.5,6.9-.4-6.14-.72-6.48-6.5-6.9,5.78-.42,6.1-.77,6.5-6.9.4,6.14.72,6.48,6.5,6.9Z"/>
  <path class="cls-2" d="M49.58,63.67s-9.57,16.34,3.9,36.87c16.61,25.31,46.37,48.62,46.37,48.62"/>
  <path class="cls-2" d="M146.18,53.93c22.43,5.29,28.96,38.36,25.34,56.46"/>
  <path class="cls-2" d="M165.85,127.19c-2.01,2.75-6.21,8.14-6.04,10.29.21,2.65,1.81,5.21,2.13,5.73,1.02,1.65,3.38,4.96,5.39,8.45.47.82-.17,2.29-.82,2.28,0,0-8.4.26-15.51-3.75,0,0-14.05,9.75-38.61,2.01"/>
  <g>
    <g>
      <g>
        <path d="M94.49,125.57c-1.5.2-3.08.3-4.73.3-15.83,0-23.98-7.91-23.98-12.09,0-2.8,2.81-4.85,5.63-4.85,1.55,0,3.1.69,4.26,2.14,2.47,3.07,7.07,5.58,13.72,5.68,1.1,3.55,2.88,6.47,5.09,8.81Z"/>
        <path d="M89.4,116.76c-6.64-.1-11.24-2.61-13.72-5.68-1.16-1.45-2.71-2.14-4.26-2.14-2.82,0-5.63,2.05-5.63,4.85,0,4.18,8.15,12.09,23.98,12.09,1.65,0,3.23-.1,4.73-.3-2.21-2.34-3.98-5.27-5.09-8.81Z"/>
        <path class="cls-7" d="M114.31,107.41c0,4.82-2.47,9.7-7.14,13.24-3.02-1.12-5.63-3.49-6.93-7.29,2.01-1.95,2.63-4.31,2.63-5.68,0-2.37-1.13-4.87-3.54-6.99-.42-.39-.89-.75-1.4-1.11-.73-.52-1.55-.99-2.45-1.44-1.85-.92-3.87-1.92-6-2.91-.45-.23-.92-.45-1.38-.66-2.38-1.09-4.84-2.18-7.27-3.14-8.54-3.4-12.43-9.45-12.43-15.32,0-8.24,7.58-16.15,20.97-16.15s21.06,5.61,21.06,9.6c0,2.56-2.42,4.94-5.44,4.94-1.45,0-3.1-.6-4.56-2.04-1.85-1.79-5.15-3.92-11.16-3.92s-10,3.4-10,7.24c0,2.63,1.85,5.53,6.11,7.48.8.37,1.72.79,2.7,1.22.45.2.92.4,1.4.62,2.67,1.16,5.68,2.44,8.33,3.63.48.22.95.43,1.4.63.46.22.89.42,1.31.62,9.7,4.68,13.79,11.14,13.79,17.44Z"/>
      </g>
      <g>
        <path class="cls-1" d="M94.49,125.57c-1.5.2-3.08.3-4.73.3-15.83,0-23.98-7.91-23.98-12.09,0-2.8,2.81-4.85,5.63-4.85,1.55,0,3.1.69,4.26,2.14,2.47,3.07,7.07,5.58,13.72,5.68,1.1,3.55,2.88,6.47,5.09,8.81Z"/>
        <path class="cls-1" d="M89.4,116.76c-6.64-.1-11.24-2.61-13.72-5.68-1.16-1.45-2.71-2.14-4.26-2.14-2.82,0-5.63,2.05-5.63,4.85,0,4.18,8.15,12.09,23.98,12.09,1.65,0,3.23-.1,4.73-.3-2.21-2.34-3.98-5.27-5.09-8.81Z"/>
        <path class="cls-1" d="M114.31,107.41c0,4.82-2.47,9.7-7.14,13.24-3.02-1.12-5.63-3.49-6.93-7.29,2.01-1.95,2.63-4.31,2.63-5.68,0-2.37-1.13-4.87-3.54-6.99-.42-.39-.89-.75-1.4-1.11-.73-.52-1.55-.99-2.45-1.44-1.85-.92-3.87-1.92-6-2.91-.45-.23-.92-.45-1.38-.66-2.38-1.09-4.84-2.18-7.27-3.14-8.54-3.4-12.43-9.45-12.43-15.32,0-8.24,7.58-16.15,20.97-16.15s21.06,5.61,21.06,9.6c0,2.56-2.42,4.94-5.44,4.94-1.45,0-3.1-.6-4.56-2.04-1.85-1.79-5.15-3.92-11.16-3.92s-10,3.4-10,7.24c0,2.63,1.85,5.53,6.11,7.48.8.37,1.72.79,2.7,1.22.45.2.92.4,1.4.62,2.67,1.16,5.68,2.44,8.33,3.63.48.22.95.43,1.4.63.46.22.89.42,1.31.62,9.7,4.68,13.79,11.14,13.79,17.44Z"/>
      </g>
    </g>
    <g>
      <g>
        <path d="M97.96,76.92c-.08,2.97-.15,5.94-.15,8.91,0,.45,0,.88.01,1.32-1.61-.72-3.34-1.46-5.02-2.2-1.15-.5-2.26-.98-3.31-1.44-.03-2.24-.07-4.44-.14-6.6-.07-2.23,1.36-4.05,4.35-4.05,2.08,0,4.26,1.29,4.26,3.89v.16Z"/>
        <path d="M97.96,76.76c0-2.6-2.18-3.89-4.26-3.89-2.99,0-4.42,1.82-4.35,4.05.07,2.17.11,4.36.14,6.6,1.05.46,2.17.93,3.31,1.44,1.68.73,3.41,1.48,5.02,2.2-.01-.45-.01-.88-.01-1.32,0-2.97.07-5.94.15-8.91v-.16Z"/>
        <path class="cls-7" d="M134.45,76.92c-.15,6.33-.22,11.51-.22,16.48,0,4.35.07,8.61.15,13.42.38,16.64-11.59,24.58-22.59,24.58-5.09,0-10.16-1.64-14.18-4.91-.48-.37-.92-.78-1.36-1.21-2.31-2.23-4.17-5.08-5.37-8.53-.15-.47-.31-.95-.43-1.44-.66-2.34-1.02-4.95-1.02-7.81v-.37c.04-3.36.06-6.83.06-10.34,1.87.89,3.69,1.78,5.4,2.63,1.16.56,2.18,1.22,3.06,1.92.01,1.06.01,2.12.01,3.19v3.13c0,1.92.24,3.66.67,5.21.14.49.29.96.48,1.42,1.34,3.55,3.8,5.97,6.68,7.32.53.24,1.09.46,1.65.62,1.31.42,2.68.62,4.05.62,7.03,0,14.29-5.43,14.29-15.81,0-6.63.14-13.42.14-20.14,0-3.36-.07-6.72-.14-9.99-.08-3.45,2.84-4.05,4.33-4.05,2.17,0,4.33,1.29,4.33,3.89v.16Z"/>
      </g>
      <g>
        <path class="cls-1" d="M97.96,76.92c-.08,2.97-.15,5.94-.15,8.91,0,.45,0,.88.01,1.32-1.61-.72-3.34-1.46-5.02-2.2-1.15-.5-2.26-.98-3.31-1.44-.03-2.24-.07-4.44-.14-6.6-.07-2.23,1.36-4.05,4.35-4.05,2.08,0,4.26,1.29,4.26,3.89v.16Z"/>
        <path class="cls-1" d="M97.96,76.76c0-2.6-2.18-3.89-4.26-3.89-2.99,0-4.42,1.82-4.35,4.05.07,2.17.11,4.36.14,6.6,1.05.46,2.17.93,3.31,1.44,1.68.73,3.41,1.48,5.02,2.2-.01-.45-.01-.88-.01-1.32,0-2.97.07-5.94.15-8.91v-.16Z"/>
        <path class="cls-1" d="M134.45,76.92c-.15,6.33-.22,11.51-.22,16.48,0,4.35.07,8.61.15,13.42.38,16.64-11.59,24.58-22.59,24.58-5.09,0-10.16-1.64-14.18-4.91-.48-.37-.92-.78-1.36-1.21-2.31-2.23-4.17-5.08-5.37-8.53-.15-.47-.31-.95-.43-1.44-.66-2.34-1.02-4.95-1.02-7.81v-.37c.04-3.36.06-6.83.06-10.34,1.87.89,3.69,1.78,5.4,2.63,1.16.56,2.18,1.22,3.06,1.92.01,1.06.01,2.12.01,3.19v3.13c0,1.92.24,3.66.67,5.21.14.49.29.96.48,1.42,1.34,3.55,3.8,5.97,6.68,7.32.53.24,1.09.46,1.65.62,1.31.42,2.68.62,4.05.62,7.03,0,14.29-5.43,14.29-15.81,0-6.63.14-13.42.14-20.14,0-3.36-.07-6.72-.14-9.99-.08-3.45,2.84-4.05,4.33-4.05,2.17,0,4.33,1.29,4.33,3.89v.16Z"/>
      </g>
    </g>
  </g>
  <path class="cls-3" d="M109.58,59.22c-7.97.58-8.42,1.06-8.97,9.52-.55-8.46-1-8.94-8.97-9.52,7.97-.58,8.42-1.06,8.97-9.52.55,8.46,1,8.94,8.97,9.52Z"/>
</svg>