<?xml version="1.0" encoding="UTF-8"?>
<svg id="_レイヤー_1" xmlns="http://www.w3.org/2000/svg" version="1.1" viewBox="0 0 801.72 417.97">
  <!-- Generator: Adobe Illustrator 30.5.1, SVG Export Plug-In . SVG Version: 2.1.4 Build 3)  -->
  <defs>
    <style>
      .st0, .st1, .st2, .st3, .st4, .st5, .st6, .st7, .st8 {
        isolation: isolate;
      }

      .st0, .st1, .st2, .st5, .st6, .st7 {
        font-family: TsukuARdGothic-Regular-83pv-RKSJ-H, 'Tsukushi A Round Gothic';
      }

      .st0, .st9, .st6, .st10 {
        stroke-miterlimit: 10;
        stroke-width: 4px;
      }

      .st0, .st5, .st7 {
        font-size: 147.23px;
      }

      .st0, .st6, .st10 {
        fill: none;
        stroke: #e98756;
      }

      .st1, .st2, .st6 {
        font-size: 149.11px;
      }

      .st11, .st9, .st4, .st8 {
        fill: #0148ce;
      }

      .st2, .st5, .st12 {
        fill: #e98756;
      }

      .st9 {
        stroke: #0148ce;
      }

      .st4 {
        font-size: 204.33px;
      }

      .st4, .st8 {
        font-family: TsukuARdGothic-Bold-83pv-RKSJ-H, 'Tsukushi A Round Gothic';
        font-weight: 700;
      }

      .st8 {
        font-size: 186.59px;
      }
    </style>
  </defs>
  <g>
    <g class="st3">
      <g class="st3">
        <g class="st3">
          <g class="st3">
            <g class="st3">
              <g class="st3">
                <text class="st7" transform="translate(384.42 335.66)"><tspan x="0" y="0">n</tspan></text>
              </g>
            </g>
          </g>
        </g>
      </g>
    </g>
    <g class="st3">
      <g class="st3">
        <g class="st3">
          <g class="st3">
            <g class="st3">
              <g class="st3">
                <text class="st5" transform="translate(384.42 335.66)"><tspan x="0" y="0">n</tspan></text>
              </g>
            </g>
          </g>
        </g>
      </g>
    </g>
    <g class="st3">
      <g class="st3">
        <g class="st3">
          <g class="st3">
            <g class="st3">
              <g class="st3">
                <text class="st0" transform="translate(384.42 335.66)"><tspan x="0" y="0">n</tspan></text>
              </g>
            </g>
          </g>
        </g>
      </g>
    </g>
  </g>
  <g>
    <g class="st3">
      <g class="st3">
        <g class="st3">
          <g class="st3">
            <g class="st3">
              <g class="st3">
                <text class="st7" transform="translate(489.33 335.85)"><tspan x="0" y="0">v</tspan></text>
              </g>
            </g>
          </g>
        </g>
      </g>
    </g>
    <g class="st3">
      <g class="st3">
        <g class="st3">
          <g class="st3">
            <g class="st3">
              <g class="st3">
                <text class="st5" transform="translate(489.33 335.85)"><tspan x="0" y="0">v</tspan></text>
              </g>
            </g>
          </g>
        </g>
      </g>
    </g>
    <g class="st3">
      <g class="st3">
        <g class="st3">
          <g class="st3">
            <g class="st3">
              <g class="st3">
                <text class="st0" transform="translate(489.33 335.85)"><tspan x="0" y="0">v</tspan></text>
              </g>
            </g>
          </g>
        </g>
      </g>
    </g>
  </g>
  <g>
    <g class="st3">
      <g class="st3">
        <g class="st3">
          <g class="st3">
            <g class="st3">
              <g class="st3">
                <text class="st7" transform="translate(621.04 335.47)"><tspan x="0" y="0">r</tspan></text>
              </g>
            </g>
          </g>
        </g>
      </g>
    </g>
    <g class="st3">
      <g class="st3">
        <g class="st3">
          <g class="st3">
            <g class="st3">
              <g class="st3">
                <text class="st5" transform="translate(621.04 335.47)"><tspan x="0" y="0">r</tspan></text>
              </g>
            </g>
          </g>
        </g>
      </g>
    </g>
    <g class="st3">
      <g class="st3">
        <g class="st3">
          <g class="st3">
            <g class="st3">
              <g class="st3">
                <text class="st0" transform="translate(621.04 335.47)"><tspan x="0" y="0">r</tspan></text>
              </g>
            </g>
          </g>
        </g>
      </g>
    </g>
  </g>
  <g>
    <g class="st3">
      <g class="st3">
        <g class="st3">
          <g class="st3">
            <g class="st3">
              <g class="st3">
                <text class="st7" transform="translate(721.83 336.03)"><tspan x="0" y="0">e</tspan></text>
              </g>
            </g>
          </g>
        </g>
      </g>
    </g>
    <g class="st3">
      <g class="st3">
        <g class="st3">
          <g class="st3">
            <g class="st3">
              <g class="st3">
                <text class="st5" transform="translate(721.83 336.03)"><tspan x="0" y="0">e</tspan></text>
              </g>
            </g>
          </g>
        </g>
      </g>
    </g>
    <g class="st3">
      <g class="st3">
        <g class="st3">
          <g class="st3">
            <g class="st3">
              <g class="st3">
                <text class="st0" transform="translate(721.83 336.03)"><tspan x="0" y="0">e</tspan></text>
              </g>
            </g>
          </g>
        </g>
      </g>
    </g>
  </g>
  <g>
    <g class="st3">
      <g class="st3">
        <g class="st3">
          <g class="st3">
            <g class="st3">
              <g class="st3">
                <text class="st7" transform="translate(551.29 336.39)"><tspan x="0" y="0">e</tspan></text>
              </g>
            </g>
          </g>
        </g>
      </g>
    </g>
    <g class="st3">
      <g class="st3">
        <g class="st3">
          <g class="st3">
            <g class="st3">
              <g class="st3">
                <text class="st5" transform="translate(551.29 336.39)"><tspan x="0" y="0">e</tspan></text>
              </g>
            </g>
          </g>
        </g>
      </g>
    </g>
    <g class="st3">
      <g class="st3">
        <g class="st3">
          <g class="st3">
            <g class="st3">
              <g class="st3">
                <text class="st0" transform="translate(551.29 336.39)"><tspan x="0" y="0">e</tspan></text>
              </g>
            </g>
          </g>
        </g>
      </g>
    </g>
  </g>
  <g>
    <g class="st3">
      <g class="st3">
        <g class="st3">
          <g class="st3">
            <g class="st3">
              <g class="st3">
                <text class="st1" transform="translate(666.95 338.22)"><tspan x="0" y="0">s</tspan></text>
              </g>
            </g>
          </g>
        </g>
      </g>
    </g>
    <g class="st3">
      <g class="st3">
        <g class="st3">
          <g class="st3">
            <g class="st3">
              <g class="st3">
                <text class="st2" transform="translate(666.95 338.22)"><tspan x="0" y="0">s</tspan></text>
              </g>
            </g>
          </g>
        </g>
      </g>
    </g>
    <g class="st3">
      <g class="st3">
        <g class="st3">
          <g class="st3">
            <g class="st3">
              <g class="st3">
                <text class="st6" transform="translate(666.95 338.22)"><tspan x="0" y="0">s</tspan></text>
              </g>
            </g>
          </g>
        </g>
      </g>
    </g>
  </g>
  <path class="st11" d="M497.76,236.36c-19.79,1.48-20.91,2.68-22.27,24.09-1.37-21.41-2.47-22.62-22.27-24.09,19.79-1.48,20.91-2.68,22.27-24.09,1.37,21.41,2.47,22.62,22.27,24.09Z"/>
  <path class="st12" d="M631.71,265.83s-5.96-42.23-42.97-52.53c-33.97-9.44-79.85,11.57-87.3,15.47-.87.45-1.97.36-2.67-.34-.16-.16-.22-.41-.23-.73-.05-1.02.52-1.97,1.4-2.49,7.1-4.2,32.64-17.75,55.08-22.37,13.96-2.88,45.3-3.11,65.91,15.66,20.61,18.77,25.17,45.16,25.17,45.16,0,0-2.01-3.64-6.81-3.34-5.97.3-7.23,4.39-7.23,4.39l-.35,1.1h0Z"/>
  <g class="st3">
    <g class="st3">
      <g class="st3">
        <g class="st3">
          <g class="st3">
            <g class="st3">
              <text class="st4" transform="translate(0 179.82) scale(1.17 1)"><tspan x="0" y="0">S</tspan></text>
            </g>
          </g>
        </g>
      </g>
    </g>
  </g>
  <g class="st3">
    <g class="st3">
      <g class="st3">
        <g class="st3">
          <g class="st3">
            <g class="st3">
              <text class="st8" transform="translate(253.11 356.3)"><tspan x="0" y="0">U</tspan></text>
            </g>
          </g>
        </g>
      </g>
    </g>
  </g>
  <g>
    <g>
      <path d="M172.52,171.97c-18.71,0-33.28-13.99-33.28-34.74s15.45-35.64,32.84-35.64c20.17,0,29,15.75,29,24.15,0,5.6-3.38,9.72-10.75,9.87-3.38.14-8.39.14-13.83.14-11.04,0-23.56-.14-26.8-.14-1.48,0-1.76.58-1.76,2.66,0,16.05,10.6,25.91,24.74,25.91,10.75,0,16.79-4.56,21.35-9.72.88-.88,1.92-1.32,2.94-1.32,2.22,0,4.42,1.92,4.42,4.27,0,3.38-10.31,14.57-28.86,14.57h0ZM172.22,108.96c-14.13,0-23.12,12.67-23.12,18.11,0,1.48,1.32,1.48,18.41,1.48,7.66,0,15.89,0,20.03-.14,3.54-.14,4.86-1.76,4.86-4.12,0-4.27-5.16-15.31-20.17-15.31h0Z"/>
      <path d="M262.47,167.11c.14-6.18.3-17.67.3-26.94,0-6.04-.14-11.19-.3-13.55-.74-11.93-8.25-16.93-16.49-16.93-10.31,0-21.94,7.95-22.23,19.73-.14,4.56-.3,12.67-.3,22.82,0,4.72,0,9.57.14,14.87v.14c0,2.66-2.06,3.98-4.27,3.98s-4.56-1.48-4.56-4.12v-.14c.3-11.93.58-25.62.58-38.14,0-8.25-.14-15.91-.3-22.38v-.14c0-2.36,2.36-3.83,4.72-3.83,2.06,0,4.12,1.18,4.12,3.98v5.6c0,.44.14.6.14.6.14,0,.44-.14.6-.44,5.3-7.07,13.69-10.6,21.79-10.6,12.22,0,24,7.95,24.59,23.56.14,4.72.3,15.61.3,25.77,0,6.18,0,12.22-.14,16.19,0,2.94-2.06,4.27-4.27,4.27s-4.42-1.48-4.42-4.12v-.17h.01Z"/>
      <path d="M307.53,172.12c-15.31,0-23.85-8.83-23.85-12.95,0-2.5,2.22-4.27,4.42-4.27,1.32,0,2.66.6,3.68,1.92,3.24,4.56,8.54,7.36,15.75,7.36,8.39,0,14.73-4.72,14.73-11.05,0-7.8-6.33-10.75-23.41-18.41-8.1-3.54-11.93-10.01-11.93-16.35,0-8.69,7.07-16.93,20.03-16.93s20.47,6.33,20.47,10.31c0,2.36-1.92,4.27-4.27,4.27-1.18,0-2.66-.6-3.83-2.06-2.36-2.8-6.04-5.16-12.37-5.16-7.51,0-11.78,4.42-11.78,9.28,0,3.54,2.36,7.22,7.22,9.57,4.12,1.92,10.89,4.72,15.45,7.07,9.13,4.72,13.11,11.63,13.11,18.41,0,8.39-6.92,18.99-23.41,18.99h0Z"/>
      <path d="M391.31,166.97c.14-6.18.3-17.67.3-26.94,0-6.04-.14-11.19-.3-13.55-.74-12.22-8.54-17.23-16.93-17.23-10.16,0-21.35,7.66-21.79,19.15-.14,4.56-.3,13.25-.3,23.71,0,4.72,0,9.72.14,15.01v.14c0,2.66-2.06,3.98-4.27,3.98s-4.56-1.48-4.56-4.12v-.14c.3-11.49.44-38.14.44-61.54,0-16.49,0-31.36-.14-38.14v-.14c0-2.36,2.2-3.68,4.42-3.68s4.42,1.32,4.42,4.12c0,5.45-.14,40.34-.14,43.43,0,.44.14.74.3.74s.3-.3.6-.6c5.16-6.63,13.55-10.01,21.79-10.01,12.22,0,24,7.66,24.59,23.71.14,4.72.3,15.61.3,25.77,0,6.18,0,12.22-.14,16.19,0,2.94-2.22,4.42-4.27,4.42-2.22,0-4.42-1.48-4.42-4.12v-.14h-.01Z"/>
    </g>
    <g>
      <path class="st12" d="M172.52,171.97c-18.71,0-33.28-13.99-33.28-34.74s15.45-35.64,32.84-35.64c20.17,0,29,15.75,29,24.15,0,5.6-3.38,9.72-10.75,9.87-3.38.14-8.39.14-13.83.14-11.04,0-23.56-.14-26.8-.14-1.48,0-1.76.58-1.76,2.66,0,16.05,10.6,25.91,24.74,25.91,10.75,0,16.79-4.56,21.35-9.72.88-.88,1.92-1.32,2.94-1.32,2.22,0,4.42,1.92,4.42,4.27,0,3.38-10.31,14.57-28.86,14.57h0ZM172.22,108.96c-14.13,0-23.12,12.67-23.12,18.11,0,1.48,1.32,1.48,18.41,1.48,7.66,0,15.89,0,20.03-.14,3.54-.14,4.86-1.76,4.86-4.12,0-4.27-5.16-15.31-20.17-15.31h0Z"/>
      <path class="st12" d="M262.47,167.11c.14-6.18.3-17.67.3-26.94,0-6.04-.14-11.19-.3-13.55-.74-11.93-8.25-16.93-16.49-16.93-10.31,0-21.94,7.95-22.23,19.73-.14,4.56-.3,12.67-.3,22.82,0,4.72,0,9.57.14,14.87v.14c0,2.66-2.06,3.98-4.27,3.98s-4.56-1.48-4.56-4.12v-.14c.3-11.93.58-25.62.58-38.14,0-8.25-.14-15.91-.3-22.38v-.14c0-2.36,2.36-3.83,4.72-3.83,2.06,0,4.12,1.18,4.12,3.98v5.6c0,.44.14.6.14.6.14,0,.44-.14.6-.44,5.3-7.07,13.69-10.6,21.79-10.6,12.22,0,24,7.95,24.59,23.56.14,4.72.3,15.61.3,25.77,0,6.18,0,12.22-.14,16.19,0,2.94-2.06,4.27-4.27,4.27s-4.42-1.48-4.42-4.12v-.17h.01Z"/>
      <path class="st12" d="M307.53,172.12c-15.31,0-23.85-8.83-23.85-12.95,0-2.5,2.22-4.27,4.42-4.27,1.32,0,2.66.6,3.68,1.92,3.24,4.56,8.54,7.36,15.75,7.36,8.39,0,14.73-4.72,14.73-11.05,0-7.8-6.33-10.75-23.41-18.41-8.1-3.54-11.93-10.01-11.93-16.35,0-8.69,7.07-16.93,20.03-16.93s20.47,6.33,20.47,10.31c0,2.36-1.92,4.27-4.27,4.27-1.18,0-2.66-.6-3.83-2.06-2.36-2.8-6.04-5.16-12.37-5.16-7.51,0-11.78,4.42-11.78,9.28,0,3.54,2.36,7.22,7.22,9.57,4.12,1.92,10.89,4.72,15.45,7.07,9.13,4.72,13.11,11.63,13.11,18.41,0,8.39-6.92,18.99-23.41,18.99h0Z"/>
      <path class="st12" d="M391.31,166.97c.14-6.18.3-17.67.3-26.94,0-6.04-.14-11.19-.3-13.55-.74-12.22-8.54-17.23-16.93-17.23-10.16,0-21.35,7.66-21.79,19.15-.14,4.56-.3,13.25-.3,23.71,0,4.72,0,9.72.14,15.01v.14c0,2.66-2.06,3.98-4.27,3.98s-4.56-1.48-4.56-4.12v-.14c.3-11.49.44-38.14.44-61.54,0-16.49,0-31.36-.14-38.14v-.14c0-2.36,2.2-3.68,4.42-3.68s4.42,1.32,4.42,4.12c0,5.45-.14,40.34-.14,43.43,0,.44.14.74.3.74s.3-.3.6-.6c5.16-6.63,13.55-10.01,21.79-10.01,12.22,0,24,7.66,24.59,23.71.14,4.72.3,15.61.3,25.77,0,6.18,0,12.22-.14,16.19,0,2.94-2.22,4.42-4.27,4.42-2.22,0-4.42-1.48-4.42-4.12v-.14h-.01Z"/>
    </g>
    <g>
      <path class="st10" d="M172.52,171.97c-18.71,0-33.28-13.99-33.28-34.74s15.45-35.64,32.84-35.64c20.17,0,29,15.75,29,24.15,0,5.6-3.38,9.72-10.75,9.87-3.38.14-8.39.14-13.83.14-11.04,0-23.56-.14-26.8-.14-1.48,0-1.76.58-1.76,2.66,0,16.05,10.6,25.91,24.74,25.91,10.75,0,16.79-4.56,21.35-9.72.88-.88,1.92-1.32,2.94-1.32,2.22,0,4.42,1.92,4.42,4.27,0,3.38-10.31,14.57-28.86,14.57h0ZM172.22,108.96c-14.13,0-23.12,12.67-23.12,18.11,0,1.48,1.32,1.48,18.41,1.48,7.66,0,15.89,0,20.03-.14,3.54-.14,4.86-1.76,4.86-4.12,0-4.27-5.16-15.31-20.17-15.31h0Z"/>
      <path class="st10" d="M262.47,167.11c.14-6.18.3-17.67.3-26.94,0-6.04-.14-11.19-.3-13.55-.74-11.93-8.25-16.93-16.49-16.93-10.31,0-21.94,7.95-22.23,19.73-.14,4.56-.3,12.67-.3,22.82,0,4.72,0,9.57.14,14.87v.14c0,2.66-2.06,3.98-4.27,3.98s-4.56-1.48-4.56-4.12v-.14c.3-11.93.58-25.62.58-38.14,0-8.25-.14-15.91-.3-22.38v-.14c0-2.36,2.36-3.83,4.72-3.83,2.06,0,4.12,1.18,4.12,3.98v5.6c0,.44.14.6.14.6.14,0,.44-.14.6-.44,5.3-7.07,13.69-10.6,21.79-10.6,12.22,0,24,7.95,24.59,23.56.14,4.72.3,15.61.3,25.77,0,6.18,0,12.22-.14,16.19,0,2.94-2.06,4.27-4.27,4.27s-4.42-1.48-4.42-4.12v-.17h.01Z"/>
      <path class="st10" d="M307.53,172.12c-15.31,0-23.85-8.83-23.85-12.95,0-2.5,2.22-4.27,4.42-4.27,1.32,0,2.66.6,3.68,1.92,3.24,4.56,8.54,7.36,15.75,7.36,8.39,0,14.73-4.72,14.73-11.05,0-7.8-6.33-10.75-23.41-18.41-8.1-3.54-11.93-10.01-11.93-16.35,0-8.69,7.07-16.93,20.03-16.93s20.47,6.33,20.47,10.31c0,2.36-1.92,4.27-4.27,4.27-1.18,0-2.66-.6-3.83-2.06-2.36-2.8-6.04-5.16-12.37-5.16-7.51,0-11.78,4.42-11.78,9.28,0,3.54,2.36,7.22,7.22,9.57,4.12,1.92,10.89,4.72,15.45,7.07,9.13,4.72,13.11,11.63,13.11,18.41,0,8.39-6.92,18.99-23.41,18.99h0Z"/>
      <path class="st10" d="M391.31,166.97c.14-6.18.3-17.67.3-26.94,0-6.04-.14-11.19-.3-13.55-.74-12.22-8.54-17.23-16.93-17.23-10.16,0-21.35,7.66-21.79,19.15-.14,4.56-.3,13.25-.3,23.71,0,4.72,0,9.72.14,15.01v.14c0,2.66-2.06,3.98-4.27,3.98s-4.56-1.48-4.56-4.12v-.14c.3-11.49.44-38.14.44-61.54,0-16.49,0-31.36-.14-38.14v-.14c0-2.36,2.2-3.68,4.42-3.68s4.42,1.32,4.42,4.12c0,5.45-.14,40.34-.14,43.43,0,.44.14.74.3.74s.3-.3.6-.6c5.16-6.63,13.55-10.01,21.79-10.01,12.22,0,24,7.66,24.59,23.71.14,4.72.3,15.61.3,25.77,0,6.18,0,12.22-.14,16.19,0,2.94-2.22,4.42-4.27,4.42-2.22,0-4.42-1.48-4.42-4.12v-.14h-.01Z"/>
    </g>
  </g>
  <path class="st9" d="M471.55,106.45c-.3,11.33-.44,23.41-.44,35.78,0,9.42.58,16.19,4.42,21.65.74,1.04,1.02,2.06,1.02,2.94,0,2.36-2.22,4.12-4.56,4.12-4.86,0-6.92-7.8-7.22-10.31-.14-.58-.14-.74-.3-.74s-.3,0-.44.3c-5,7.66-14.43,11.78-23.71,11.78-12.22,0-24-7.36-24.44-23.56-.14-5.3-.44-18.99-.44-30.18,0-4.56,0-8.83.14-11.93,0-2.94,2.06-4.27,4.27-4.27s4.42,1.48,4.42,4.12v.14c-.14,6.18-.3,17.81-.3,27.38,0,6.18.14,11.33.3,13.69.74,12.07,8.39,17.07,16.63,17.07,10.31,0,21.49-7.8,21.79-19.87.14-5.01.3-10.01.3-15.01,0-7.8-.14-15.45-.3-23.27v-.14c0-2.66,2.06-3.98,4.27-3.98s4.56,1.48,4.56,4.12v.18h.01Z"/>
  <path class="st11" d="M467.72,333.64s4.17-10.65,1.48-62.09c0,0-1.18-7.27,6.31-7.79,8.19-.57,7.79,6.83,7.79,6.83,0,0,2.62,52.93-2.09,65.07l-13.49-2.02h0Z"/>
  <path class="st11" d="M482.66,329.21s-2.16,13.12-5.19,20.54c-3.83,9.39-11.59,21.01-22.37,29.74-12.47,10.1-26.3,17.67-37.24,22.31-46.76,19.81-90.08,17.97-121.59,12.47-42.04-5.97-94.03-34.17-126.49-64.16-25.05-23.15-73.14-70.84-94.41-135.91-1.17-3.55-1.8-4.35-2.98-8.86-.75-2.82-.78-4.72,0-5.88,1.37-2.06,2.37-1.72,5.87,6.14,21.68,48.72,41.43,83.07,90.11,127.3,48.86,44.38,93.36,57.32,107.8,62.3,21.91,7.55,45.49,9.69,72.93,7.82,20.22-1.37,50.64-9.6,60.79-14.13,11.66-5.21,37.23-18.91,46.5-30.13,0,0,5.95-5.82,9.22-17.32.43-1.5,2.07-7.79,2.27-8.34.14-.38,10.03-4.4,14.78-3.89h0Z"/>
</svg>