<?xml version="1.0" encoding="UTF-8"?>
<svg id="_レイヤー_1" xmlns="http://www.w3.org/2000/svg" version="1.1" viewBox="0 0 796.5 392.3">
  <!-- Generator: Adobe Illustrator 30.5.1, SVG Export Plug-In . SVG Version: 2.1.4 Build 3)  -->
  <defs>
    <style>
      .st0, .st1 {
        fill: #0148ce;
      }

      .st1, .st2, .st3 {
        stroke-miterlimit: 10;
      }

      .st1, .st3 {
        stroke: #0148ce;
      }

      .st4 {
        fill: blue;
      }

      .st2 {
        stroke: #e98756;
      }

      .st2, .st3 {
        fill: none;
        stroke-width: 2px;
      }

      .st5 {
        fill: #e98756;
      }
    </style>
  </defs>
  <g>
    <path d="M444.13,310.22c.14-6.27.3-17.92.3-27.33,0-6.12-.14-11.35-.3-13.74-.75-12.1-8.37-17.17-16.73-17.17-10.46,0-22.26,8.07-22.55,20.01-.14,4.63-.3,12.85-.3,23.15,0,4.78,0,9.71.14,15.09v.14c0,2.69-2.09,4.03-4.34,4.03s-4.63-1.5-4.63-4.18v-.14c.3-12.1.6-25.99.6-38.69,0-8.37-.14-16.14-.3-22.71v-.14c0-2.39,2.39-3.89,4.78-3.89,2.09,0,4.18,1.2,4.18,4.03v5.68c0,.45.14.6.14.6.14,0,.45-.14.59-.45,5.37-7.17,13.89-10.75,22.1-10.75,12.39,0,24.35,8.07,24.94,23.9.14,4.78.3,15.83.3,26.14,0,6.27,0,12.39-.14,16.43,0,2.98-2.09,4.34-4.34,4.34s-4.48-1.5-4.48-4.18v-.17Z"/>
    <path class="st5" d="M444.13,310.22c.14-6.27.3-17.92.3-27.33,0-6.12-.14-11.35-.3-13.74-.75-12.1-8.37-17.17-16.73-17.17-10.46,0-22.26,8.07-22.55,20.01-.14,4.63-.3,12.85-.3,23.15,0,4.78,0,9.71.14,15.09v.14c0,2.69-2.09,4.03-4.34,4.03s-4.63-1.5-4.63-4.18v-.14c.3-12.1.6-25.99.6-38.69,0-8.37-.14-16.14-.3-22.71v-.14c0-2.39,2.39-3.89,4.78-3.89,2.09,0,4.18,1.2,4.18,4.03v5.68c0,.45.14.6.14.6.14,0,.45-.14.59-.45,5.37-7.17,13.89-10.75,22.1-10.75,12.39,0,24.35,8.07,24.94,23.9.14,4.78.3,15.83.3,26.14,0,6.27,0,12.39-.14,16.43,0,2.98-2.09,4.34-4.34,4.34s-4.48-1.5-4.48-4.18v-.17Z"/>
    <path class="st2" d="M444.13,310.22c.14-6.27.3-17.92.3-27.33,0-6.12-.14-11.35-.3-13.74-.75-12.1-8.37-17.17-16.73-17.17-10.46,0-22.26,8.07-22.55,20.01-.14,4.63-.3,12.85-.3,23.15,0,4.78,0,9.71.14,15.09v.14c0,2.69-2.09,4.03-4.34,4.03s-4.63-1.5-4.63-4.18v-.14c.3-12.1.6-25.99.6-38.69,0-8.37-.14-16.14-.3-22.71v-.14c0-2.39,2.39-3.89,4.78-3.89,2.09,0,4.18,1.2,4.18,4.03v5.68c0,.45.14.6.14.6.14,0,.45-.14.59-.45,5.37-7.17,13.89-10.75,22.1-10.75,12.39,0,24.35,8.07,24.94,23.9.14,4.78.3,15.83.3,26.14,0,6.27,0,12.39-.14,16.43,0,2.98-2.09,4.34-4.34,4.34s-4.48-1.5-4.48-4.18v-.17Z"/>
  </g>
  <g>
    <path d="M523.51,314.43c-2.98,0-5.98-2.09-7.62-6.12-22.55-57.8-22.55-57.95-22.55-59.45,0-2.69,2.09-4.18,4.18-4.18,1.94,0,3.89,1.04,4.63,3.43,1.79,5.53,15.98,42.86,19.42,53.02.59,1.94,1.34,2.84,1.94,2.84.75,0,1.5-1.05,2.09-2.54,3.59-9.41,16.14-43.47,19.42-53.47.75-2.09,2.39-2.98,4.03-2.98,2.39,0,4.93,1.64,4.93,4.18,0,2.98-15.68,43.02-22.55,59.14-1.64,3.89-4.78,6.12-7.91,6.12h-.01Z"/>
    <path class="st5" d="M523.51,314.43c-2.98,0-5.98-2.09-7.62-6.12-22.55-57.8-22.55-57.95-22.55-59.45,0-2.69,2.09-4.18,4.18-4.18,1.94,0,3.89,1.04,4.63,3.43,1.79,5.53,15.98,42.86,19.42,53.02.59,1.94,1.34,2.84,1.94,2.84.75,0,1.5-1.05,2.09-2.54,3.59-9.41,16.14-43.47,19.42-53.47.75-2.09,2.39-2.98,4.03-2.98,2.39,0,4.93,1.64,4.93,4.18,0,2.98-15.68,43.02-22.55,59.14-1.64,3.89-4.78,6.12-7.91,6.12h-.01Z"/>
    <path class="st2" d="M523.51,314.43c-2.98,0-5.98-2.09-7.62-6.12-22.55-57.8-22.55-57.95-22.55-59.45,0-2.69,2.09-4.18,4.18-4.18,1.94,0,3.89,1.04,4.63,3.43,1.79,5.53,15.98,42.86,19.42,53.02.59,1.94,1.34,2.84,1.94,2.84.75,0,1.5-1.05,2.09-2.54,3.59-9.41,16.14-43.47,19.42-53.47.75-2.09,2.39-2.98,4.03-2.98,2.39,0,4.93,1.64,4.93,4.18,0,2.98-15.68,43.02-22.55,59.14-1.64,3.89-4.78,6.12-7.91,6.12h-.01Z"/>
  </g>
  <g>
    <path d="M644.72,310.18c0,2.69-2.09,4.03-4.34,4.03-2.39,0-4.78-1.5-4.78-4.18v-.14c.3-12.1.6-26.14.6-38.99,0-8.37-.14-16.28-.3-22.85v-.14c0-2.39,2.39-3.89,4.63-3.89s4.48,1.34,4.48,4.18c0,2.25-.14,3.29-.14,5.37,0,.45.14.75.14.75.14,0,.45-.3.59-.6,6.57-9.11,20.01-10.01,21.81-10.01,3.14,0,4.63,1.94,4.63,4.03s-1.64,4.34-4.63,4.34c-10.6,0-22.4,6.73-22.71,18.23-.14,3.89-.14,10.75-.14,19.26,0,6.12,0,13.14.14,20.46v.14h.01Z"/>
    <path class="st5" d="M644.72,310.18c0,2.69-2.09,4.03-4.34,4.03-2.39,0-4.78-1.5-4.78-4.18v-.14c.3-12.1.6-26.14.6-38.99,0-8.37-.14-16.28-.3-22.85v-.14c0-2.39,2.39-3.89,4.63-3.89s4.48,1.34,4.48,4.18c0,2.25-.14,3.29-.14,5.37,0,.45.14.75.14.75.14,0,.45-.3.59-.6,6.57-9.11,20.01-10.01,21.81-10.01,3.14,0,4.63,1.94,4.63,4.03s-1.64,4.34-4.63,4.34c-10.6,0-22.4,6.73-22.71,18.23-.14,3.89-.14,10.75-.14,19.26,0,6.12,0,13.14.14,20.46v.14h.01Z"/>
    <path class="st2" d="M644.72,310.18c0,2.69-2.09,4.03-4.34,4.03-2.39,0-4.78-1.5-4.78-4.18v-.14c.3-12.1.6-26.14.6-38.99,0-8.37-.14-16.28-.3-22.85v-.14c0-2.39,2.39-3.89,4.63-3.89s4.48,1.34,4.48,4.18c0,2.25-.14,3.29-.14,5.37,0,.45.14.75.14.75.14,0,.45-.3.59-.6,6.57-9.11,20.01-10.01,21.81-10.01,3.14,0,4.63,1.94,4.63,4.03s-1.64,4.34-4.63,4.34c-10.6,0-22.4,6.73-22.71,18.23-.14,3.89-.14,10.75-.14,19.26,0,6.12,0,13.14.14,20.46v.14h.01Z"/>
  </g>
  <g>
    <path d="M766.22,315.51c-18.97,0-33.76-14.19-33.76-35.24s15.68-36.15,33.31-36.15c20.46,0,29.42,15.98,29.42,24.49,0,5.68-3.43,9.86-10.91,10.01-3.43.14-8.51.14-14.03.14-11.2,0-23.9-.14-27.19-.14-1.5,0-1.79.59-1.79,2.69,0,16.28,10.75,26.28,25.1,26.28,10.91,0,17.03-4.63,21.66-9.86.89-.89,1.94-1.34,2.98-1.34,2.25,0,4.48,1.94,4.48,4.34,0,3.43-10.46,14.78-29.28,14.78h0ZM765.92,251.58c-14.34,0-23.46,12.85-23.46,18.37,0,1.5,1.34,1.5,18.67,1.5,7.77,0,16.14,0,20.31-.14,3.59-.14,4.93-1.79,4.93-4.18,0-4.34-5.23-15.53-20.46-15.53h0Z"/>
    <path class="st5" d="M766.22,315.51c-18.97,0-33.76-14.19-33.76-35.24s15.68-36.15,33.31-36.15c20.46,0,29.42,15.98,29.42,24.49,0,5.68-3.43,9.86-10.91,10.01-3.43.14-8.51.14-14.03.14-11.2,0-23.9-.14-27.19-.14-1.5,0-1.79.59-1.79,2.69,0,16.28,10.75,26.28,25.1,26.28,10.91,0,17.03-4.63,21.66-9.86.89-.89,1.94-1.34,2.98-1.34,2.25,0,4.48,1.94,4.48,4.34,0,3.43-10.46,14.78-29.28,14.78h0ZM765.92,251.58c-14.34,0-23.46,12.85-23.46,18.37,0,1.5,1.34,1.5,18.67,1.5,7.77,0,16.14,0,20.31-.14,3.59-.14,4.93-1.79,4.93-4.18,0-4.34-5.23-15.53-20.46-15.53h0Z"/>
    <path class="st2" d="M766.22,315.51c-18.97,0-33.76-14.19-33.76-35.24s15.68-36.15,33.31-36.15c20.46,0,29.42,15.98,29.42,24.49,0,5.68-3.43,9.86-10.91,10.01-3.43.14-8.51.14-14.03.14-11.2,0-23.9-.14-27.19-.14-1.5,0-1.79.59-1.79,2.69,0,16.28,10.75,26.28,25.1,26.28,10.91,0,17.03-4.63,21.66-9.86.89-.89,1.94-1.34,2.98-1.34,2.25,0,4.48,1.94,4.48,4.34,0,3.43-10.46,14.78-29.28,14.78h0ZM765.92,251.58c-14.34,0-23.46,12.85-23.46,18.37,0,1.5,1.34,1.5,18.67,1.5,7.77,0,16.14,0,20.31-.14,3.59-.14,4.93-1.79,4.93-4.18,0-4.34-5.23-15.53-20.46-15.53h0Z"/>
  </g>
  <g>
    <path class="st4" d="M479.5,311.1c-2.09,6.39-2.02,7.14-4.53,8.15-1.18.47-5.37-7.17-4.82-8.75,2.47-7.16,1.7-30.33,1.7-44.22,0-7.02,0-13.14-.14-17.32v-.14c0-2.69,2.39-4.18,4.78-4.18,2.25,0,4.63,1.34,4.63,4.03v.14c-.14,6.27-.3,18.51-.3,31.37,0,10.24,1.2,19.85-1.06,28.48-.16.62-4.13.85-4.6,1.13-.83.49,4.35,1.31,4.35,1.33h.01Z"/>
    <path class="st0" d="M479.5,311.1c-2.09,6.39-2.02,7.14-4.53,8.15-1.18.47-5.37-7.17-4.82-8.75,2.47-7.16,1.7-30.33,1.7-44.22,0-7.02,0-13.14-.14-17.32v-.14c0-2.69,2.39-4.18,4.78-4.18,2.25,0,4.63,1.34,4.63,4.03v.14c-.14,6.27-.3,18.51-.3,31.37,0,10.24,1.2,19.85-1.06,28.48-.16.62-4.13.85-4.6,1.13-.83.49,4.35,1.31,4.35,1.33h.01Z"/>
    <path class="st3" d="M479.5,311.1c-2.09,6.39-2.02,7.14-4.53,8.15-1.18.47-5.37-7.17-4.82-8.75,2.47-7.16,1.7-30.33,1.7-44.22,0-7.02,0-13.14-.14-17.32v-.14c0-2.69,2.39-4.18,4.78-4.18,2.25,0,4.63,1.34,4.63,4.03v.14c-.14,6.27-.3,18.51-.3,31.37,0,10.24,1.2,19.85-1.06,28.48-.16.62-4.13.85-4.6,1.13-.83.49,4.35,1.31,4.35,1.33h.01Z"/>
  </g>
  <g>
    <path d="M593.23,315.88c-18.97,0-33.76-14.19-33.76-35.24s15.68-36.15,33.31-36.15c20.46,0,29.42,15.98,29.42,24.49,0,5.68-3.43,9.86-10.91,10.01-3.43.14-8.51.14-14.03.14-11.2,0-23.9-.14-27.19-.14-1.5,0-1.79.59-1.79,2.69,0,16.28,10.75,26.28,25.1,26.28,10.91,0,17.03-4.63,21.66-9.86.89-.89,1.94-1.34,2.98-1.34,2.25,0,4.48,1.94,4.48,4.34,0,3.43-10.46,14.78-29.28,14.78h0ZM592.93,251.95c-14.34,0-23.46,12.85-23.46,18.37,0,1.5,1.34,1.5,18.67,1.5,7.77,0,16.14,0,20.31-.14,3.59-.14,4.93-1.79,4.93-4.18,0-4.34-5.23-15.53-20.46-15.53h0Z"/>
    <path class="st5" d="M593.23,315.88c-18.97,0-33.76-14.19-33.76-35.24s15.68-36.15,33.31-36.15c20.46,0,29.42,15.98,29.42,24.49,0,5.68-3.43,9.86-10.91,10.01-3.43.14-8.51.14-14.03.14-11.2,0-23.9-.14-27.19-.14-1.5,0-1.79.59-1.79,2.69,0,16.28,10.75,26.28,25.1,26.28,10.91,0,17.03-4.63,21.66-9.86.89-.89,1.94-1.34,2.98-1.34,2.25,0,4.48,1.94,4.48,4.34,0,3.43-10.46,14.78-29.28,14.78h0ZM592.93,251.95c-14.34,0-23.46,12.85-23.46,18.37,0,1.5,1.34,1.5,18.67,1.5,7.77,0,16.14,0,20.31-.14,3.59-.14,4.93-1.79,4.93-4.18,0-4.34-5.23-15.53-20.46-15.53h0Z"/>
    <path class="st2" d="M593.23,315.88c-18.97,0-33.76-14.19-33.76-35.24s15.68-36.15,33.31-36.15c20.46,0,29.42,15.98,29.42,24.49,0,5.68-3.43,9.86-10.91,10.01-3.43.14-8.51.14-14.03.14-11.2,0-23.9-.14-27.19-.14-1.5,0-1.79.59-1.79,2.69,0,16.28,10.75,26.28,25.1,26.28,10.91,0,17.03-4.63,21.66-9.86.89-.89,1.94-1.34,2.98-1.34,2.25,0,4.48,1.94,4.48,4.34,0,3.43-10.46,14.78-29.28,14.78h0ZM592.93,251.95c-14.34,0-23.46,12.85-23.46,18.37,0,1.5,1.34,1.5,18.67,1.5,7.77,0,16.14,0,20.31-.14,3.59-.14,4.93-1.79,4.93-4.18,0-4.34-5.23-15.53-20.46-15.53h0Z"/>
  </g>
  <g>
    <path d="M700.25,317.89c-15.53,0-24.19-9.08-24.19-13.31,0-2.58,2.25-4.39,4.48-4.39,1.34,0,2.69.6,3.73,1.97,3.29,4.69,8.66,7.56,15.98,7.56,8.51,0,14.94-4.84,14.94-11.34,0-8.02-6.43-11.04-23.74-18.91-8.21-3.63-12.1-10.29-12.1-16.79,0-8.92,7.17-17.4,20.31-17.4s20.76,6.5,20.76,10.59c0,2.42-1.94,4.39-4.34,4.39-1.2,0-2.69-.6-3.89-2.12-2.39-2.88-6.12-5.3-12.55-5.3-7.62,0-11.94,4.53-11.94,9.53,0,3.63,2.39,7.41,7.32,9.83,4.18,1.97,11.05,4.84,15.68,7.27,9.26,4.84,13.3,11.94,13.3,18.91,0,8.62-7.02,19.51-23.74,19.51h0Z"/>
    <path class="st5" d="M700.25,317.89c-15.53,0-24.19-9.08-24.19-13.31,0-2.58,2.25-4.39,4.48-4.39,1.34,0,2.69.6,3.73,1.97,3.29,4.69,8.66,7.56,15.98,7.56,8.51,0,14.94-4.84,14.94-11.34,0-8.02-6.43-11.04-23.74-18.91-8.21-3.63-12.1-10.29-12.1-16.79,0-8.92,7.17-17.4,20.31-17.4s20.76,6.5,20.76,10.59c0,2.42-1.94,4.39-4.34,4.39-1.2,0-2.69-.6-3.89-2.12-2.39-2.88-6.12-5.3-12.55-5.3-7.62,0-11.94,4.53-11.94,9.53,0,3.63,2.39,7.41,7.32,9.83,4.18,1.97,11.05,4.84,15.68,7.27,9.26,4.84,13.3,11.94,13.3,18.91,0,8.62-7.02,19.51-23.74,19.51h0Z"/>
    <path class="st2" d="M700.25,317.89c-15.53,0-24.19-9.08-24.19-13.31,0-2.58,2.25-4.39,4.48-4.39,1.34,0,2.69.6,3.73,1.97,3.29,4.69,8.66,7.56,15.98,7.56,8.51,0,14.94-4.84,14.94-11.34,0-8.02-6.43-11.04-23.74-18.91-8.21-3.63-12.1-10.29-12.1-16.79,0-8.92,7.17-17.4,20.31-17.4s20.76,6.5,20.76,10.59c0,2.42-1.94,4.39-4.34,4.39-1.2,0-2.69-.6-3.89-2.12-2.39-2.88-6.12-5.3-12.55-5.3-7.62,0-11.94,4.53-11.94,9.53,0,3.63,2.39,7.41,7.32,9.83,4.18,1.97,11.05,4.84,15.68,7.27,9.26,4.84,13.3,11.94,13.3,18.91,0,8.62-7.02,19.51-23.74,19.51h0Z"/>
  </g>
  <path class="st0" d="M498.21,214.27c-20.08,1.5-21.21,2.72-22.59,24.44-1.39-21.72-2.51-22.94-22.59-24.44,20.08-1.5,21.21-2.72,22.59-24.44,1.39,21.72,2.51,22.94,22.59,24.44Z"/>
  <path class="st5" d="M634.54,242.94s-7.2-44.03-44.74-54.48c-34.45-9.58-81.84,14.15-89.39,18.11-.88.46-2,.37-2.71-.34-.16-.16-.22-.42-.24-.74-.05-1.04.53-2,1.42-2.52,7.2-4.26,33.11-18,55.87-22.69,14.17-2.92,45.95-3.15,66.86,15.89,20.91,19.04,24.07,46.15,24.07,46.15,0,0-5.76-5.27-11.16.62h.01Z"/>
  <path class="st0" d="M60.01,160.64c-39.6,0-60.01-19.28-60.01-29.43,0-6.85,7.04-11.81,14.09-11.81,3.89,0,7.78,1.66,10.7,5.18,6.32,7.67,18.23,13.89,35.47,13.89,26.73,0,32.56-15.54,32.56-22.18,0-8.29-5.83-17.2-18.46-23.22-10.7-5.18-23.81-11.39-36.69-16.37-21.38-8.29-31.1-23.01-31.1-37.31C6.56,19.28,25.51,0,59.04,0s52.72,13.68,52.72,23.42c0,6.22-6.07,12.02-13.6,12.02-3.64,0-7.78-1.45-11.42-4.98-4.61-4.35-12.88-9.54-27.94-9.54s-25.02,8.29-25.02,17.62c0,6.43,4.61,13.47,15.31,18.24,9.96,4.56,26.73,11.2,37.9,16.37,24.3,11.41,34.49,27.15,34.49,42.48,0,22.18-22.1,44.98-61.47,44.98v.03Z"/>
  <path class="st0" d="M264.13,280.1v-.95c.18-13.25.18-27.25.18-41.08,0-11.55,0-22.9-.38-33.88-.18-5.49,3.39-10.03,10.93-10.03,5.28,0,10.75,3.22,10.75,9.66v.38c-.18,7.38-.38,14.77-.38,22.14,0,15.52.38,31.04.38,46.37v7.77c0,25.36,16.96,37.67,34.11,37.67s36-13.44,36-39.18c0-16.46.38-33.31.38-49.97,0-8.33-.18-16.66-.38-24.8-.18-8.51,7.16-10.03,10.93-10.03,5.47,0,10.93,3.22,10.93,9.66v.38c-.38,15.72-.57,28.58-.57,40.88,0,10.79.18,21.39.38,33.31.95,41.26-29.21,60.94-56.92,60.94s-56.36-19.68-56.36-59.25h0Z"/>
  <g>
    <g>
      <path d="M166.74,148.95c-18.97,0-33.76-14.19-33.76-35.24s15.68-36.15,33.31-36.15c20.46,0,29.42,15.98,29.42,24.49,0,5.68-3.43,9.86-10.91,10.01-3.43.14-8.51.14-14.03.14-11.2,0-23.9-.14-27.19-.14-1.5,0-1.79.59-1.79,2.69,0,16.28,10.75,26.28,25.1,26.28,10.91,0,17.03-4.63,21.66-9.86.89-.89,1.94-1.34,2.98-1.34,2.25,0,4.48,1.94,4.48,4.34,0,3.43-10.46,14.78-29.28,14.78h0ZM166.43,85.03c-14.34,0-23.46,12.85-23.46,18.37,0,1.5,1.34,1.5,18.67,1.5,7.77,0,16.12,0,20.31-.14,3.59-.14,4.93-1.79,4.93-4.18,0-4.34-5.23-15.53-20.46-15.53h0Z"/>
      <path d="M258,144.02c.14-6.27.3-17.92.3-27.33,0-6.12-.14-11.35-.3-13.74-.75-12.1-8.37-17.17-16.73-17.17-10.46,0-22.26,8.07-22.55,20.01-.14,4.63-.3,12.85-.3,23.15,0,4.78,0,9.71.14,15.09v.14c0,2.69-2.09,4.03-4.34,4.03s-4.63-1.5-4.63-4.18v-.14c.3-12.1.59-25.99.59-38.69,0-8.37-.14-16.14-.3-22.71v-.14c0-2.39,2.39-3.89,4.78-3.89,2.09,0,4.18,1.2,4.18,4.03v5.68c0,.45.14.6.14.6.14,0,.45-.14.6-.45,5.37-7.17,13.89-10.75,22.1-10.75,12.39,0,24.35,8.07,24.94,23.9.14,4.78.3,15.83.3,26.14,0,6.27,0,12.39-.14,16.43,0,2.98-2.09,4.34-4.34,4.34s-4.48-1.5-4.48-4.18v-.17Z"/>
      <path d="M303.7,149.1c-15.53,0-24.19-8.96-24.19-13.14,0-2.54,2.25-4.34,4.48-4.34,1.34,0,2.69.6,3.73,1.94,3.29,4.63,8.66,7.46,15.98,7.46,8.51,0,14.94-4.78,14.94-11.21,0-7.91-6.43-10.91-23.74-18.67-8.21-3.59-12.1-10.16-12.1-16.58,0-8.82,7.17-17.17,20.31-17.17s20.76,6.43,20.76,10.46c0,2.39-1.94,4.34-4.34,4.34-1.2,0-2.69-.6-3.89-2.09-2.39-2.84-6.12-5.23-12.55-5.23-7.62,0-11.94,4.48-11.94,9.41,0,3.59,2.39,7.32,7.32,9.71,4.18,1.94,11.05,4.78,15.68,7.17,9.26,4.78,13.3,11.8,13.3,18.67,0,8.51-7.02,19.26-23.74,19.26h0Z"/>
      <path d="M388.68,143.87c.14-6.27.3-17.92.3-27.33,0-6.12-.14-11.35-.3-13.74-.75-12.39-8.66-17.48-17.17-17.48-10.3,0-21.66,7.77-22.1,19.42-.14,4.63-.3,13.44-.3,24.05,0,4.78,0,9.86.14,15.23v.14c0,2.69-2.09,4.03-4.34,4.03s-4.63-1.5-4.63-4.18v-.14c.3-11.66.45-38.69.45-62.43,0-16.73,0-31.81-.14-38.69v-.14c0-2.39,2.23-3.73,4.48-3.73s4.48,1.34,4.48,4.18c0,5.53-.14,40.92-.14,44.06,0,.45.14.75.3.75s.3-.3.6-.6c5.23-6.73,13.74-10.16,22.1-10.16,12.39,0,24.35,7.77,24.94,24.05.14,4.78.3,15.83.3,26.14,0,6.27,0,12.39-.14,16.43,0,2.98-2.25,4.48-4.34,4.48-2.25,0-4.48-1.5-4.48-4.18v-.14h-.01Z"/>
    </g>
    <g>
      <path class="st5" d="M166.74,148.95c-18.97,0-33.76-14.19-33.76-35.24s15.68-36.15,33.31-36.15c20.46,0,29.42,15.98,29.42,24.49,0,5.68-3.43,9.86-10.91,10.01-3.43.14-8.51.14-14.03.14-11.2,0-23.9-.14-27.19-.14-1.5,0-1.79.59-1.79,2.69,0,16.28,10.75,26.28,25.1,26.28,10.91,0,17.03-4.63,21.66-9.86.89-.89,1.94-1.34,2.98-1.34,2.25,0,4.48,1.94,4.48,4.34,0,3.43-10.46,14.78-29.28,14.78h0ZM166.43,85.03c-14.34,0-23.46,12.85-23.46,18.37,0,1.5,1.34,1.5,18.67,1.5,7.77,0,16.12,0,20.31-.14,3.59-.14,4.93-1.79,4.93-4.18,0-4.34-5.23-15.53-20.46-15.53h0Z"/>
      <path class="st5" d="M258,144.02c.14-6.27.3-17.92.3-27.33,0-6.12-.14-11.35-.3-13.74-.75-12.1-8.37-17.17-16.73-17.17-10.46,0-22.26,8.07-22.55,20.01-.14,4.63-.3,12.85-.3,23.15,0,4.78,0,9.71.14,15.09v.14c0,2.69-2.09,4.03-4.34,4.03s-4.63-1.5-4.63-4.18v-.14c.3-12.1.59-25.99.59-38.69,0-8.37-.14-16.14-.3-22.71v-.14c0-2.39,2.39-3.89,4.78-3.89,2.09,0,4.18,1.2,4.18,4.03v5.68c0,.45.14.6.14.6.14,0,.45-.14.6-.45,5.37-7.17,13.89-10.75,22.1-10.75,12.39,0,24.35,8.07,24.94,23.9.14,4.78.3,15.83.3,26.14,0,6.27,0,12.39-.14,16.43,0,2.98-2.09,4.34-4.34,4.34s-4.48-1.5-4.48-4.18v-.17Z"/>
      <path class="st5" d="M303.7,149.1c-15.53,0-24.19-8.96-24.19-13.14,0-2.54,2.25-4.34,4.48-4.34,1.34,0,2.69.6,3.73,1.94,3.29,4.63,8.66,7.46,15.98,7.46,8.51,0,14.94-4.78,14.94-11.21,0-7.91-6.43-10.91-23.74-18.67-8.21-3.59-12.1-10.16-12.1-16.58,0-8.82,7.17-17.17,20.31-17.17s20.76,6.43,20.76,10.46c0,2.39-1.94,4.34-4.34,4.34-1.2,0-2.69-.6-3.89-2.09-2.39-2.84-6.12-5.23-12.55-5.23-7.62,0-11.94,4.48-11.94,9.41,0,3.59,2.39,7.32,7.32,9.71,4.18,1.94,11.05,4.78,15.68,7.17,9.26,4.78,13.3,11.8,13.3,18.67,0,8.51-7.02,19.26-23.74,19.26h0Z"/>
      <path class="st5" d="M388.68,143.87c.14-6.27.3-17.92.3-27.33,0-6.12-.14-11.35-.3-13.74-.75-12.39-8.66-17.48-17.17-17.48-10.3,0-21.66,7.77-22.1,19.42-.14,4.63-.3,13.44-.3,24.05,0,4.78,0,9.86.14,15.23v.14c0,2.69-2.09,4.03-4.34,4.03s-4.63-1.5-4.63-4.18v-.14c.3-11.66.45-38.69.45-62.43,0-16.73,0-31.81-.14-38.69v-.14c0-2.39,2.23-3.73,4.48-3.73s4.48,1.34,4.48,4.18c0,5.53-.14,40.92-.14,44.06,0,.45.14.75.3.75s.3-.3.6-.6c5.23-6.73,13.74-10.16,22.1-10.16,12.39,0,24.35,7.77,24.94,24.05.14,4.78.3,15.83.3,26.14,0,6.27,0,12.39-.14,16.43,0,2.98-2.25,4.48-4.34,4.48-2.25,0-4.48-1.5-4.48-4.18v-.14h-.01Z"/>
    </g>
    <g>
      <path class="st2" d="M166.74,148.95c-18.97,0-33.76-14.19-33.76-35.24s15.68-36.15,33.31-36.15c20.46,0,29.42,15.98,29.42,24.49,0,5.68-3.43,9.86-10.91,10.01-3.43.14-8.51.14-14.03.14-11.2,0-23.9-.14-27.19-.14-1.5,0-1.79.59-1.79,2.69,0,16.28,10.75,26.28,25.1,26.28,10.91,0,17.03-4.63,21.66-9.86.89-.89,1.94-1.34,2.98-1.34,2.25,0,4.48,1.94,4.48,4.34,0,3.43-10.46,14.78-29.28,14.78h0ZM166.43,85.03c-14.34,0-23.46,12.85-23.46,18.37,0,1.5,1.34,1.5,18.67,1.5,7.77,0,16.12,0,20.31-.14,3.59-.14,4.93-1.79,4.93-4.18,0-4.34-5.23-15.53-20.46-15.53h0Z"/>
      <path class="st2" d="M258,144.02c.14-6.27.3-17.92.3-27.33,0-6.12-.14-11.35-.3-13.74-.75-12.1-8.37-17.17-16.73-17.17-10.46,0-22.26,8.07-22.55,20.01-.14,4.63-.3,12.85-.3,23.15,0,4.78,0,9.71.14,15.09v.14c0,2.69-2.09,4.03-4.34,4.03s-4.63-1.5-4.63-4.18v-.14c.3-12.1.59-25.99.59-38.69,0-8.37-.14-16.14-.3-22.71v-.14c0-2.39,2.39-3.89,4.78-3.89,2.09,0,4.18,1.2,4.18,4.03v5.68c0,.45.14.6.14.6.14,0,.45-.14.6-.45,5.37-7.17,13.89-10.75,22.1-10.75,12.39,0,24.35,8.07,24.94,23.9.14,4.78.3,15.83.3,26.14,0,6.27,0,12.39-.14,16.43,0,2.98-2.09,4.34-4.34,4.34s-4.48-1.5-4.48-4.18v-.17Z"/>
      <path class="st2" d="M303.7,149.1c-15.53,0-24.19-8.96-24.19-13.14,0-2.54,2.25-4.34,4.48-4.34,1.34,0,2.69.6,3.73,1.94,3.29,4.63,8.66,7.46,15.98,7.46,8.51,0,14.94-4.78,14.94-11.21,0-7.91-6.43-10.91-23.74-18.67-8.21-3.59-12.1-10.16-12.1-16.58,0-8.82,7.17-17.17,20.31-17.17s20.76,6.43,20.76,10.46c0,2.39-1.94,4.34-4.34,4.34-1.2,0-2.69-.6-3.89-2.09-2.39-2.84-6.12-5.23-12.55-5.23-7.62,0-11.94,4.48-11.94,9.41,0,3.59,2.39,7.32,7.32,9.71,4.18,1.94,11.05,4.78,15.68,7.17,9.26,4.78,13.3,11.8,13.3,18.67,0,8.51-7.02,19.26-23.74,19.26h0Z"/>
      <path class="st2" d="M388.68,143.87c.14-6.27.3-17.92.3-27.33,0-6.12-.14-11.35-.3-13.74-.75-12.39-8.66-17.48-17.17-17.48-10.3,0-21.66,7.77-22.1,19.42-.14,4.63-.3,13.44-.3,24.05,0,4.78,0,9.86.14,15.23v.14c0,2.69-2.09,4.03-4.34,4.03s-4.63-1.5-4.63-4.18v-.14c.3-11.66.45-38.69.45-62.43,0-16.73,0-31.81-.14-38.69v-.14c0-2.39,2.23-3.73,4.48-3.73s4.48,1.34,4.48,4.18c0,5.53-.14,40.92-.14,44.06,0,.45.14.75.3.75s.3-.3.6-.6c5.23-6.73,13.74-10.16,22.1-10.16,12.39,0,24.35,7.77,24.94,24.05.14,4.78.3,15.83.3,26.14,0,6.27,0,12.39-.14,16.43,0,2.98-2.25,4.48-4.34,4.48-2.25,0-4.48-1.5-4.48-4.18v-.14h-.01Z"/>
    </g>
  </g>
  <path class="st1" d="M470.08,82.49c-.3,11.5-.45,23.74-.45,36.29,0,9.55.59,16.43,4.48,21.96.75,1.05,1.04,2.09,1.04,2.98,0,2.39-2.25,4.18-4.63,4.18-4.93,0-7.02-7.91-7.32-10.46-.14-.59-.14-.75-.3-.75s-.3,0-.45.3c-5.07,7.77-14.64,11.94-24.05,11.94-12.39,0-24.35-7.46-24.8-23.9-.14-5.37-.45-19.26-.45-30.62,0-4.63,0-8.96.14-12.1,0-2.98,2.09-4.34,4.34-4.34s4.48,1.5,4.48,4.18v.14c-.14,6.27-.3,18.07-.3,27.78,0,6.27.14,11.5.3,13.89.75,12.25,8.51,17.32,16.87,17.32,10.46,0,21.8-7.91,22.1-20.16.14-5.09.3-10.16.3-15.23,0-7.91-.14-15.68-.3-23.6v-.14c0-2.69,2.09-4.03,4.34-4.03s4.63,1.5,4.63,4.18v.18Z"/>
  <path class="st0" d="M482.08,303.02s-1.5,13.13-4.57,20.66c-3.89,9.53-11.27,20.34-22.21,29.2-12.65,10.25-26.5,16.96-37.61,21.67-47.41,20.09-90.16,19.76-122.1,15.23-42.63-6.06-95.35-34.66-128.25-65.08-25.4-23.48-74.15-71.86-95.73-137.87-1.18-3.6-1.83-4.42-3.02-8.99-.76-2.86-.79-4.78,0-5.97,1.39-2.09,2.4-1.75,5.95,6.23,21.98,49.42,42.01,84.27,91.36,129.13,49.54,45.02,94.66,58.15,109.3,63.19,22.21,7.66,46.12,9.83,73.94,7.94,20.5-1.39,51.34-9.74,61.64-14.34,11.83-5.28,37.75-19.18,47.15-30.56,0,0,6.03-5.9,9.36-17.57.43-1.52,2.1-7.9,2.3-8.46.14-.38,7.66-4.93,12.48-4.4h0Z"/>
</svg>