<?xml version="1.0" encoding="UTF-8"?>
<svg id="_レイヤー_1" data-name=" レイヤー 1" xmlns="http://www.w3.org/2000/svg" viewBox="0 0 841.89 595.28">
  <defs>
    <style>
      .cls-1, .cls-2, .cls-3, .cls-4, .cls-5, .cls-6 {
        font-family: TsukuARdGothic-Regular-83pv-RKSJ-H, 'Tsukushi A Round Gothic';
      }

      .cls-1, .cls-2, .cls-3, .cls-4, .cls-5, .cls-6, .cls-7, .cls-8, .cls-9 {
        isolation: isolate;
      }

      .cls-1, .cls-2, .cls-5 {
        font-size: 113.66px;
      }

      .cls-1, .cls-3, .cls-10 {
        fill: #e98756;
      }

      .cls-11, .cls-12, .cls-8, .cls-9 {
        fill: #0148ce;
      }

      .cls-2, .cls-6, .cls-12, .cls-13 {
        stroke-miterlimit: 10;
        stroke-width: 4px;
      }

      .cls-2, .cls-6, .cls-13 {
        fill: none;
        stroke: #e98756;
      }

      .cls-3, .cls-4, .cls-6 {
        font-size: 115.11px;
      }

      .cls-12 {
        stroke: #0148ce;
      }

      .cls-8 {
        font-size: 144.04px;
      }

      .cls-8, .cls-9 {
        font-family: TsukuARdGothic-Bold-83pv-RKSJ-H, 'Tsukushi A Round Gothic';
        font-weight: 700;
      }

      .cls-9 {
        font-size: 157.74px;
      }
    </style>
  </defs>
  <g>
    <g class="cls-7">
      <g class="cls-7">
        <g class="cls-7">
          <g class="cls-7">
            <g class="cls-7">
              <text class="cls-5" transform="translate(392.81 417.94)"><tspan x="0" y="0">n</tspan></text>
            </g>
          </g>
        </g>
      </g>
    </g>
    <g class="cls-7">
      <g class="cls-7">
        <g class="cls-7">
          <g class="cls-7">
            <g class="cls-7">
              <text class="cls-1" transform="translate(392.81 417.94)"><tspan x="0" y="0">n</tspan></text>
            </g>
          </g>
        </g>
      </g>
    </g>
    <g class="cls-7">
      <g class="cls-7">
        <g class="cls-7">
          <g class="cls-7">
            <g class="cls-7">
              <text class="cls-2" transform="translate(392.81 417.94)"><tspan x="0" y="0">n</tspan></text>
            </g>
          </g>
        </g>
      </g>
    </g>
  </g>
  <g>
    <g class="cls-7">
      <g class="cls-7">
        <g class="cls-7">
          <g class="cls-7">
            <g class="cls-7">
              <text class="cls-5" transform="translate(473.8 418.08)"><tspan x="0" y="0">v</tspan></text>
            </g>
          </g>
        </g>
      </g>
    </g>
    <g class="cls-7">
      <g class="cls-7">
        <g class="cls-7">
          <g class="cls-7">
            <g class="cls-7">
              <text class="cls-1" transform="translate(473.8 418.08)"><tspan x="0" y="0">v</tspan></text>
            </g>
          </g>
        </g>
      </g>
    </g>
    <g class="cls-7">
      <g class="cls-7">
        <g class="cls-7">
          <g class="cls-7">
            <g class="cls-7">
              <text class="cls-2" transform="translate(473.8 418.08)"><tspan x="0" y="0">v</tspan></text>
            </g>
          </g>
        </g>
      </g>
    </g>
  </g>
  <g>
    <g class="cls-7">
      <g class="cls-7">
        <g class="cls-7">
          <g class="cls-7">
            <g class="cls-7">
              <text class="cls-5" transform="translate(575.47 417.79)"><tspan x="0" y="0">r</tspan></text>
            </g>
          </g>
        </g>
      </g>
    </g>
    <g class="cls-7">
      <g class="cls-7">
        <g class="cls-7">
          <g class="cls-7">
            <g class="cls-7">
              <text class="cls-1" transform="translate(575.47 417.79)"><tspan x="0" y="0">r</tspan></text>
            </g>
          </g>
        </g>
      </g>
    </g>
    <g class="cls-7">
      <g class="cls-7">
        <g class="cls-7">
          <g class="cls-7">
            <g class="cls-7">
              <text class="cls-2" transform="translate(575.47 417.79)"><tspan x="0" y="0">r</tspan></text>
            </g>
          </g>
        </g>
      </g>
    </g>
  </g>
  <g>
    <g class="cls-7">
      <g class="cls-7">
        <g class="cls-7">
          <g class="cls-7">
            <g class="cls-7">
              <text class="cls-5" transform="translate(653.28 418.22)"><tspan x="0" y="0">e</tspan></text>
            </g>
          </g>
        </g>
      </g>
    </g>
    <g class="cls-7">
      <g class="cls-7">
        <g class="cls-7">
          <g class="cls-7">
            <g class="cls-7">
              <text class="cls-1" transform="translate(653.28 418.22)"><tspan x="0" y="0">e</tspan></text>
            </g>
          </g>
        </g>
      </g>
    </g>
    <g class="cls-7">
      <g class="cls-7">
        <g class="cls-7">
          <g class="cls-7">
            <g class="cls-7">
              <text class="cls-2" transform="translate(653.28 418.22)"><tspan x="0" y="0">e</tspan></text>
            </g>
          </g>
        </g>
      </g>
    </g>
  </g>
  <g>
    <g class="cls-7">
      <g class="cls-7">
        <g class="cls-7">
          <g class="cls-7">
            <g class="cls-7">
              <text class="cls-5" transform="translate(521.63 418.5)"><tspan x="0" y="0">e</tspan></text>
            </g>
          </g>
        </g>
      </g>
    </g>
    <g class="cls-7">
      <g class="cls-7">
        <g class="cls-7">
          <g class="cls-7">
            <g class="cls-7">
              <text class="cls-1" transform="translate(521.63 418.5)"><tspan x="0" y="0">e</tspan></text>
            </g>
          </g>
        </g>
      </g>
    </g>
    <g class="cls-7">
      <g class="cls-7">
        <g class="cls-7">
          <g class="cls-7">
            <g class="cls-7">
              <text class="cls-2" transform="translate(521.63 418.5)"><tspan x="0" y="0">e</tspan></text>
            </g>
          </g>
        </g>
      </g>
    </g>
  </g>
  <g>
    <g class="cls-7">
      <g class="cls-7">
        <g class="cls-7">
          <g class="cls-7">
            <g class="cls-7">
              <text class="cls-4" transform="translate(610.91 419.91)"><tspan x="0" y="0">s</tspan></text>
            </g>
          </g>
        </g>
      </g>
    </g>
    <g class="cls-7">
      <g class="cls-7">
        <g class="cls-7">
          <g class="cls-7">
            <g class="cls-7">
              <text class="cls-3" transform="translate(610.91 419.91)"><tspan x="0" y="0">s</tspan></text>
            </g>
          </g>
        </g>
      </g>
    </g>
    <g class="cls-7">
      <g class="cls-7">
        <g class="cls-7">
          <g class="cls-7">
            <g class="cls-7">
              <text class="cls-6" transform="translate(610.91 419.91)"><tspan x="0" y="0">s</tspan></text>
            </g>
          </g>
        </g>
      </g>
    </g>
  </g>
  <path class="cls-11" d="M480.3,341.28c-15.28,1.14-16.14,2.07-17.19,18.6-1.06-16.53-1.91-17.46-17.19-18.6,15.28-1.14,16.14-2.07,17.19-18.6,1.06,16.53,1.91,17.46,17.19,18.6Z"/>
  <path class="cls-10" d="M583.71,364.03s-4.6-32.6-33.17-40.55c-26.22-7.29-61.64,8.93-67.39,11.94-.67.35-1.52.28-2.06-.26-.12-.12-.17-.32-.18-.56-.04-.79.4-1.52,1.08-1.92,5.48-3.24,25.2-13.7,42.52-17.27,10.78-2.22,34.97-2.4,50.88,12.09s19.43,34.86,19.43,34.86c0,0-1.55-2.81-5.26-2.58-4.61.23-5.58,3.39-5.58,3.39l-.27.85Z"/>
  <g class="cls-7">
    <g class="cls-7">
      <g class="cls-7">
        <g class="cls-7">
          <g class="cls-7">
            <text class="cls-9" transform="translate(96.05 297.63) scale(1.17 1)"><tspan x="0" y="0">S</tspan></text>
          </g>
        </g>
      </g>
    </g>
  </g>
  <g class="cls-7">
    <g class="cls-7">
      <g class="cls-7">
        <g class="cls-7">
          <g class="cls-7">
            <text class="cls-8" transform="translate(291.44 433.87)"><tspan x="0" y="0">U</tspan></text>
          </g>
        </g>
      </g>
    </g>
  </g>
  <g>
    <g>
      <path d="M229.23,291.57c-14.44,0-25.69-10.8-25.69-26.82s11.93-27.51,25.35-27.51c15.57,0,22.39,12.16,22.39,18.64,0,4.32-2.61,7.5-8.3,7.62-2.61.11-6.48.11-10.68.11-8.52,0-18.19-.11-20.69-.11-1.14,0-1.36.45-1.36,2.05,0,12.39,8.18,20,19.1,20,8.3,0,12.96-3.52,16.48-7.5.68-.68,1.48-1.02,2.27-1.02,1.71,0,3.41,1.48,3.41,3.3,0,2.61-7.96,11.25-22.28,11.25h0ZM229,242.93c-10.91,0-17.85,9.78-17.85,13.98,0,1.14,1.02,1.14,14.21,1.14,5.91,0,12.27,0,15.46-.11,2.73-.11,3.75-1.36,3.75-3.18,0-3.3-3.98-11.82-15.57-11.82h0Z"/>
      <path d="M298.67,287.82c.11-4.77.23-13.64.23-20.8,0-4.66-.11-8.64-.23-10.46-.57-9.21-6.37-13.07-12.73-13.07-7.96,0-16.94,6.14-17.16,15.23-.11,3.52-.23,9.78-.23,17.62,0,3.64,0,7.39.11,11.48v.11c0,2.05-1.59,3.07-3.3,3.07s-3.52-1.14-3.52-3.18v-.11c.23-9.21.45-19.78.45-29.44,0-6.37-.11-12.28-.23-17.28v-.11c0-1.82,1.82-2.96,3.64-2.96,1.59,0,3.18.91,3.18,3.07v4.32c0,.34.11.46.11.46.11,0,.34-.11.46-.34,4.09-5.46,10.57-8.18,16.82-8.18,9.43,0,18.53,6.14,18.98,18.19.11,3.64.23,12.05.23,19.89,0,4.77,0,9.43-.11,12.5,0,2.27-1.59,3.3-3.3,3.3s-3.41-1.14-3.41-3.18v-.13h0Z"/>
      <path d="M333.45,291.69c-11.82,0-18.41-6.82-18.41-10,0-1.93,1.71-3.3,3.41-3.3,1.02,0,2.05.46,2.84,1.48,2.5,3.52,6.59,5.68,12.16,5.68,6.48,0,11.37-3.64,11.37-8.53,0-6.02-4.89-8.3-18.07-14.21-6.25-2.73-9.21-7.73-9.21-12.62,0-6.71,5.46-13.07,15.46-13.07s15.8,4.89,15.8,7.96c0,1.82-1.48,3.3-3.3,3.3-.91,0-2.05-.46-2.96-1.59-1.82-2.16-4.66-3.98-9.55-3.98-5.8,0-9.09,3.41-9.09,7.16,0,2.73,1.82,5.57,5.57,7.39,3.18,1.48,8.41,3.64,11.93,5.46,7.05,3.64,10.12,8.98,10.12,14.21,0,6.48-5.34,14.66-18.07,14.66h0Z"/>
      <path d="M398.13,287.71c.11-4.77.23-13.64.23-20.8,0-4.66-.11-8.64-.23-10.46-.57-9.43-6.59-13.3-13.07-13.3-7.84,0-16.48,5.91-16.82,14.78-.11,3.52-.23,10.23-.23,18.3,0,3.64,0,7.5.11,11.59v.11c0,2.05-1.59,3.07-3.3,3.07s-3.52-1.14-3.52-3.18v-.11c.23-8.87.34-29.44.34-47.51,0-12.73,0-24.21-.11-29.44v-.11c0-1.82,1.7-2.84,3.41-2.84s3.41,1.02,3.41,3.18c0,4.21-.11,31.14-.11,33.53,0,.34.11.57.23.57s.23-.23.46-.46c3.98-5.12,10.46-7.73,16.82-7.73,9.43,0,18.53,5.91,18.98,18.3.11,3.64.23,12.05.23,19.89,0,4.77,0,9.43-.11,12.5,0,2.27-1.71,3.41-3.3,3.41-1.71,0-3.41-1.14-3.41-3.18v-.11h-.01Z"/>
    </g>
    <g>
      <path class="cls-10" d="M229.23,291.57c-14.44,0-25.69-10.8-25.69-26.82s11.93-27.51,25.35-27.51c15.57,0,22.39,12.16,22.39,18.64,0,4.32-2.61,7.5-8.3,7.62-2.61.11-6.48.11-10.68.11-8.52,0-18.19-.11-20.69-.11-1.14,0-1.36.45-1.36,2.05,0,12.39,8.18,20,19.1,20,8.3,0,12.96-3.52,16.48-7.5.68-.68,1.48-1.02,2.27-1.02,1.71,0,3.41,1.48,3.41,3.3,0,2.61-7.96,11.25-22.28,11.25h0ZM229,242.93c-10.91,0-17.85,9.78-17.85,13.98,0,1.14,1.02,1.14,14.21,1.14,5.91,0,12.27,0,15.46-.11,2.73-.11,3.75-1.36,3.75-3.18,0-3.3-3.98-11.82-15.57-11.82h0Z"/>
      <path class="cls-10" d="M298.67,287.82c.11-4.77.23-13.64.23-20.8,0-4.66-.11-8.64-.23-10.46-.57-9.21-6.37-13.07-12.73-13.07-7.96,0-16.94,6.14-17.16,15.23-.11,3.52-.23,9.78-.23,17.62,0,3.64,0,7.39.11,11.48v.11c0,2.05-1.59,3.07-3.3,3.07s-3.52-1.14-3.52-3.18v-.11c.23-9.21.45-19.78.45-29.44,0-6.37-.11-12.28-.23-17.28v-.11c0-1.82,1.82-2.96,3.64-2.96,1.59,0,3.18.91,3.18,3.07v4.32c0,.34.11.46.11.46.11,0,.34-.11.46-.34,4.09-5.46,10.57-8.18,16.82-8.18,9.43,0,18.53,6.14,18.98,18.19.11,3.64.23,12.05.23,19.89,0,4.77,0,9.43-.11,12.5,0,2.27-1.59,3.3-3.3,3.3s-3.41-1.14-3.41-3.18v-.13h0Z"/>
      <path class="cls-10" d="M333.45,291.69c-11.82,0-18.41-6.82-18.41-10,0-1.93,1.71-3.3,3.41-3.3,1.02,0,2.05.46,2.84,1.48,2.5,3.52,6.59,5.68,12.16,5.68,6.48,0,11.37-3.64,11.37-8.53,0-6.02-4.89-8.3-18.07-14.21-6.25-2.73-9.21-7.73-9.21-12.62,0-6.71,5.46-13.07,15.46-13.07s15.8,4.89,15.8,7.96c0,1.82-1.48,3.3-3.3,3.3-.91,0-2.05-.46-2.96-1.59-1.82-2.16-4.66-3.98-9.55-3.98-5.8,0-9.09,3.41-9.09,7.16,0,2.73,1.82,5.57,5.57,7.39,3.18,1.48,8.41,3.64,11.93,5.46,7.05,3.64,10.12,8.98,10.12,14.21,0,6.48-5.34,14.66-18.07,14.66h0Z"/>
      <path class="cls-10" d="M398.13,287.71c.11-4.77.23-13.64.23-20.8,0-4.66-.11-8.64-.23-10.46-.57-9.43-6.59-13.3-13.07-13.3-7.84,0-16.48,5.91-16.82,14.78-.11,3.52-.23,10.23-.23,18.3,0,3.64,0,7.5.11,11.59v.11c0,2.05-1.59,3.07-3.3,3.07s-3.52-1.14-3.52-3.18v-.11c.23-8.87.34-29.44.34-47.51,0-12.73,0-24.21-.11-29.44v-.11c0-1.82,1.7-2.84,3.41-2.84s3.41,1.02,3.41,3.18c0,4.21-.11,31.14-.11,33.53,0,.34.11.57.23.57s.23-.23.46-.46c3.98-5.12,10.46-7.73,16.82-7.73,9.43,0,18.53,5.91,18.98,18.3.11,3.64.23,12.05.23,19.89,0,4.77,0,9.43-.11,12.5,0,2.27-1.71,3.41-3.3,3.41-1.71,0-3.41-1.14-3.41-3.18v-.11h-.01Z"/>
    </g>
    <g>
      <path class="cls-13" d="M229.23,291.57c-14.44,0-25.69-10.8-25.69-26.82s11.93-27.51,25.35-27.51c15.57,0,22.39,12.16,22.39,18.64,0,4.32-2.61,7.5-8.3,7.62-2.61.11-6.48.11-10.68.11-8.52,0-18.19-.11-20.69-.11-1.14,0-1.36.45-1.36,2.05,0,12.39,8.18,20,19.1,20,8.3,0,12.96-3.52,16.48-7.5.68-.68,1.48-1.02,2.27-1.02,1.71,0,3.41,1.48,3.41,3.3,0,2.61-7.96,11.25-22.28,11.25h0ZM229,242.93c-10.91,0-17.85,9.78-17.85,13.98,0,1.14,1.02,1.14,14.21,1.14,5.91,0,12.27,0,15.46-.11,2.73-.11,3.75-1.36,3.75-3.18,0-3.3-3.98-11.82-15.57-11.82h0Z"/>
      <path class="cls-13" d="M298.67,287.82c.11-4.77.23-13.64.23-20.8,0-4.66-.11-8.64-.23-10.46-.57-9.21-6.37-13.07-12.73-13.07-7.96,0-16.94,6.14-17.16,15.23-.11,3.52-.23,9.78-.23,17.62,0,3.64,0,7.39.11,11.48v.11c0,2.05-1.59,3.07-3.3,3.07s-3.52-1.14-3.52-3.18v-.11c.23-9.21.45-19.78.45-29.44,0-6.37-.11-12.28-.23-17.28v-.11c0-1.82,1.82-2.96,3.64-2.96,1.59,0,3.18.91,3.18,3.07v4.32c0,.34.11.46.11.46.11,0,.34-.11.46-.34,4.09-5.46,10.57-8.18,16.82-8.18,9.43,0,18.53,6.14,18.98,18.19.11,3.64.23,12.05.23,19.89,0,4.77,0,9.43-.11,12.5,0,2.27-1.59,3.3-3.3,3.3s-3.41-1.14-3.41-3.18v-.13h0Z"/>
      <path class="cls-13" d="M333.45,291.69c-11.82,0-18.41-6.82-18.41-10,0-1.93,1.71-3.3,3.41-3.3,1.02,0,2.05.46,2.84,1.48,2.5,3.52,6.59,5.68,12.16,5.68,6.48,0,11.37-3.64,11.37-8.53,0-6.02-4.89-8.3-18.07-14.21-6.25-2.73-9.21-7.73-9.21-12.62,0-6.71,5.46-13.07,15.46-13.07s15.8,4.89,15.8,7.96c0,1.82-1.48,3.3-3.3,3.3-.91,0-2.05-.46-2.96-1.59-1.82-2.16-4.66-3.98-9.55-3.98-5.8,0-9.09,3.41-9.09,7.16,0,2.73,1.82,5.57,5.57,7.39,3.18,1.48,8.41,3.64,11.93,5.46,7.05,3.64,10.12,8.98,10.12,14.21,0,6.48-5.34,14.66-18.07,14.66h0Z"/>
      <path class="cls-13" d="M398.13,287.71c.11-4.77.23-13.64.23-20.8,0-4.66-.11-8.64-.23-10.46-.57-9.43-6.59-13.3-13.07-13.3-7.84,0-16.48,5.91-16.82,14.78-.11,3.52-.23,10.23-.23,18.3,0,3.64,0,7.5.11,11.59v.11c0,2.05-1.59,3.07-3.3,3.07s-3.52-1.14-3.52-3.18v-.11c.23-8.87.34-29.44.34-47.51,0-12.73,0-24.21-.11-29.44v-.11c0-1.82,1.7-2.84,3.41-2.84s3.41,1.02,3.41,3.18c0,4.21-.11,31.14-.11,33.53,0,.34.11.57.23.57s.23-.23.46-.46c3.98-5.12,10.46-7.73,16.82-7.73,9.43,0,18.53,5.91,18.98,18.3.11,3.64.23,12.05.23,19.89,0,4.77,0,9.43-.11,12.5,0,2.27-1.71,3.41-3.3,3.41-1.71,0-3.41-1.14-3.41-3.18v-.11h-.01Z"/>
    </g>
  </g>
  <path class="cls-12" d="M460.07,240.99c-.23,8.75-.34,18.07-.34,27.62,0,7.27.45,12.5,3.41,16.71.57.8.79,1.59.79,2.27,0,1.82-1.71,3.18-3.52,3.18-3.75,0-5.34-6.02-5.57-7.96-.11-.45-.11-.57-.23-.57s-.23,0-.34.23c-3.86,5.91-11.14,9.09-18.3,9.09-9.43,0-18.53-5.68-18.87-18.19-.11-4.09-.34-14.66-.34-23.3,0-3.52,0-6.82.11-9.21,0-2.27,1.59-3.3,3.3-3.3s3.41,1.14,3.41,3.18v.11c-.11,4.77-.23,13.75-.23,21.14,0,4.77.11,8.75.23,10.57.57,9.32,6.48,13.18,12.84,13.18,7.96,0,16.59-6.02,16.82-15.34.11-3.87.23-7.73.23-11.59,0-6.02-.11-11.93-.23-17.96v-.11c0-2.05,1.59-3.07,3.3-3.07s3.52,1.14,3.52,3.18v.14h.01Z"/>
  <path class="cls-11" d="M457.11,416.38s3.22-8.22,1.14-47.93c0,0-.91-5.61,4.87-6.01,6.32-.44,6.01,5.27,6.01,5.27,0,0,2.02,40.86-1.61,50.23l-10.41-1.56h0Z"/>
  <path class="cls-11" d="M468.65,412.96s-1.67,10.13-4.01,15.86c-2.96,7.25-8.95,16.22-17.27,22.96-9.63,7.8-20.3,13.64-28.75,17.22-36.1,15.29-69.54,13.87-93.86,9.63-32.45-4.61-72.59-26.38-97.65-49.53-19.34-17.87-56.46-54.69-72.88-104.92-.9-2.74-1.39-3.36-2.3-6.84-.58-2.18-.6-3.64,0-4.54,1.06-1.59,1.83-1.33,4.53,4.74,16.74,37.61,31.98,64.13,69.56,98.27,37.72,34.26,72.07,44.25,83.22,48.09,16.91,5.83,35.12,7.48,56.3,6.04,15.61-1.06,39.09-7.41,46.93-10.91,9-4.02,28.74-14.6,35.9-23.26,0,0,4.59-4.49,7.12-13.37.33-1.16,1.6-6.01,1.75-6.44.11-.29,7.74-3.4,11.41-3h0Z"/>
</svg>