<?xml version="1.0" encoding="UTF-8"?>
<svg id="_レイヤー_1" data-name="レイヤー 1" xmlns="http://www.w3.org/2000/svg" viewBox="0 0 595.28 595.28">
  <defs>
    <style>
      .cls-1 {
        fill: #231815;
      }

      .cls-2 {
        fill: #fff;
      }
    </style>
  </defs>
  <path class="cls-1" d="M198.88,211.38h218.96v211.02c0,9.3-7.54,16.83-16.83,16.83h-185.29c-9.3,0-16.83-7.54-16.83-16.83v-211.02Z"/>
  <path class="cls-2" d="M229.02,241.16h28.97v164.35c0,8-6.48,14.48-14.48,14.48h0c-8,0-14.48-6.48-14.48-14.48v-164.35Z"/>
  <path class="cls-2" d="M293.88,241.16h28.97v164.35c0,8-6.48,14.48-14.48,14.48h0c-8,0-14.48-6.48-14.48-14.48v-164.35Z"/>
  <path class="cls-2" d="M358.74,241.16h28.97v164.35c0,8-6.48,14.48-14.48,14.48h0c-8,0-14.48-6.48-14.48-14.48v-164.35Z"/>
  <path class="cls-1" d="M198.88,199.88h218.96v-13.99c0-6.87-5.57-12.44-12.44-12.44h-72.97v-19.67h-49.47v19.68l-71.75.6c-6.83.06-12.33,5.61-12.33,12.43v13.38Z"/>
</svg>