<?xml version="1.0" encoding="UTF-8"?>
<svg id="_レイヤー_1" xmlns="http://www.w3.org/2000/svg" version="1.1" viewBox="0 0 407.64 590.73">
  <!-- Generator: Adobe Illustrator 30.5.1, SVG Export Plug-In . SVG Version: 2.1.4 Build 3)  -->
  <defs>
    <style>
      .st0, .st1 {
        fill: none;
        stroke-width: 30px;
      }

      .st0, .st1, .st2 {
        stroke: #231815;
      }

      .st0, .st2 {
        stroke-miterlimit: 10;
      }

      .st1 {
        stroke-miterlimit: 10;
      }

      .st2 {
        stroke-width: 10px;
      }

      .st2, .st3 {
        fill: #231815;
      }
    </style>
  </defs>
  <path class="st1" d="M390.77,101.48l-231.96,390.82c-3.94,6.64-12.53,8.83-19.16,4.89l-111.37-66.1c-6.48-3.84-8.6-12.22-4.76-18.68L255.32,21.84c3.93-6.62,12.5-8.82,19.13-4.88l111.66,66.27c6.32,3.75,8.4,11.94,4.66,18.25h0Z"/>
  <path class="st0" d="M18.9,426.01c-1.74-1-.29-10.17-.29-8.17l-3.61,151.71c0,4.65,4.96,7.64,9.07,5.46l126.09-71.6c4.98-2.64-2.22-3.4-7.12-6.2l-124.12-71.19h-.02Z"/>
  <polygon class="st3" points="16.51 505.81 76.39 543.61 19.98 572.83 16.51 505.81"/>
  <path class="st2" d="M301.57,97.8h0c5.57,3.3,7.4,10.5,4.1,16.06l-177.05,298.31c-3.3,5.57-10.5,7.4-16.06,4.1h0c-5.57-3.3-7.4-10.5-4.1-16.06L285.51,101.9c3.3-5.57,10.5-7.4,16.06-4.1Z"/>
</svg>