<?xml version="1.0" encoding="UTF-8"?>
<svg id="_レイヤー_1" xmlns="http://www.w3.org/2000/svg" version="1.1" viewBox="0 0 528.45 587.75">
  <!-- Generator: Adobe Illustrator 30.5.1, SVG Export Plug-In . SVG Version: 2.1.4 Build 3)  -->
  <defs>
    <style>
      .st0 {
        fill: #231815;
      }

      .st1 {
        fill: #fff;
      }
    </style>
  </defs>
  <ellipse class="st0" cx="264.23" cy="542.69" rx="70.08" ry="45.06"/>
  <ellipse class="st0" cx="264.23" cy="51.41" rx="43.31" ry="51.41"/>
  <path class="st0" d="M.02,531.82v-72.25c.02-9.23,4.92-17.74,12.88-22.35,9.58-5.52,22.98-15.24,34.62-30.85,5.7-7.63,8.76-16.92,8.85-26.46l1.09-122.66c.4-45.17,14.59-89.39,41.76-125.5,30.05-39.87,80.79-77.44,165.42-77.51,88.6-.07,139.82,39.83,169.1,81.01,24.46,34.4,37.23,75.73,37.88,117.91l1.97,129.02c.18,11.73,4.39,23.06,12,32,6.61,7.76,16.26,17.63,29.63,28.05,8.32,6.48,13.24,16.37,13.24,26.9v57.08c0,7.78-6.3,14.1-14.08,14.15l-503.46,2.31c-6.01.02-10.91-4.86-10.91-10.87h.02Z"/>
  <path class="st1" d="M99.25,266.19c1.06-39.23,13.62-77.51,37.15-108.91s64.58-63.51,128.07-63.51,100.95,27.85,126.03,58.72c25.79,31.74,39.63,71.54,40.61,112.41l2.68,113.1c.91,37.99,20.45,73.34,52.65,93.54,1.04.67,2.13,1.31,3.22,1.97v29.69H38.8v-29.76s1.69-.75,4.5-2.31c31.87-17.54,51.83-50.9,52.8-87.27l3.17-117.69h-.02Z"/>
</svg>