<?xml version="1.0" encoding="UTF-8"?>
<svg id="_レイヤー_1" xmlns="http://www.w3.org/2000/svg" version="1.1" viewBox="0 0 432.03 563.22">
  <!-- Generator: Adobe Illustrator 30.5.1, SVG Export Plug-In . SVG Version: 2.1.4 Build 3)  -->
  <defs>
    <style>
      .st0 {
        fill: #231815;
      }

      .st1 {
        fill: #fff;
      }
    </style>
  </defs>
  <path class="st0" d="M0,113.65h432.03v416.36c0,18.35-14.88,33.21-33.21,33.21H33.23C14.88,563.22.02,548.34.02,530.01V113.65h-.02Z"/>
  <path class="st1" d="M59.47,172.41h57.16v324.28c0,15.78-12.79,28.57-28.57,28.57h0c-15.78,0-28.57-12.79-28.57-28.57V172.41h-.02Z"/>
  <path class="st1" d="M187.44,172.41h57.16v324.28c0,15.78-12.79,28.57-28.57,28.57h0c-15.78,0-28.57-12.79-28.57-28.57V172.41h-.02Z"/>
  <path class="st1" d="M315.42,172.41h57.16v324.28c0,15.78-12.79,28.57-28.57,28.57h0c-15.78,0-28.57-12.79-28.57-28.57V172.41h-.02Z"/>
  <path class="st0" d="M0,90.96h432.03v-27.6c0-13.56-10.99-24.55-24.55-24.55h-143.98V0h-97.61v38.83l-141.57,1.18C10.85,40.13,0,51.08,0,64.54v26.42Z"/>
</svg>