<?xml version="1.0" encoding="UTF-8"?>
<svg id="_レイヤー_1" data-name="レイヤー 1" xmlns="http://www.w3.org/2000/svg" viewBox="0 0 595.28 595.28">
  <defs>
    <style>
      .cls-1 {
        fill: #231815;
      }

      .cls-2 {
        stroke-width: 9px;
      }

      .cls-2, .cls-3 {
        fill: none;
        stroke: #231815;
        stroke-miterlimit: 10;
      }

      .cls-3 {
        stroke-width: 12px;
      }
    </style>
  </defs>
  <path class="cls-3" d="M188.3,245.65h219.04c3.72,0,6.74,3.02,6.74,6.74v62.42c0,3.63-2.95,6.57-6.57,6.57h-218.9c-3.71,0-6.73-3.01-6.73-6.73v-62.58c0-3.54,2.88-6.42,6.42-6.42Z" transform="translate(693.88 172) rotate(120.69)"/>
  <path class="cls-2" d="M207.3,364.96c-.84-.48-.14-4.9-.14-3.94l-1.74,73.12c0,2.24,2.39,3.68,4.37,2.63l60.77-34.51c2.4-1.27-1.07-1.64-3.43-2.99l-59.82-34.31Z"/>
  <polygon class="cls-1" points="206.15 403.42 235.01 421.64 207.82 435.72 206.15 403.42"/>
  <rect class="cls-1" x="292.33" y="194.28" width="11.3" height="178.49" rx="5.65" ry="5.65" transform="translate(186.45 -112.38) rotate(30.69)"/>
</svg>