<?xml version="1.0" encoding="UTF-8"?>
<svg id="_レイヤー_1" data-name="レイヤー 1" xmlns="http://www.w3.org/2000/svg" xmlns:xlink="http://www.w3.org/1999/xlink" viewBox="0 0 595.28 595.28">
  <defs>
    <style>
      .cls-1 {
        fill: none;
      }

      .cls-2 {
        fill: #231815;
      }

      .cls-3 {
        fill: #fff;
      }

      .cls-4 {
        clip-path: url(#clippath);
      }
    </style>
    <clipPath id="clippath">
      <path class="cls-1" d="M547.52,499.17H47.76V96.1h499.76v403.07ZM297.64,245.86c-28.59,0-51.78,23.18-51.78,51.78s23.18,51.78,51.78,51.78,51.78-23.18,51.78-51.78-23.18-51.78-51.78-51.78Z"/>
    </clipPath>
  </defs>
  <g class="cls-4">
    <g>
      <path class="cls-2" d="M232.39,170.86l21.74-9.16c1.67-.71,2.99-2.06,3.64-3.76l12.44-32.42c.85-2.2,2.96-3.66,5.32-3.66h43.68c2.34,0,4.44,1.43,5.3,3.6l12.5,31.53c.66,1.66,1.95,2.98,3.59,3.68l21.93,9.34c1.7.72,3.63.71,5.32-.04l30.59-13.54c2.16-.96,4.68-.48,6.35,1.19l32.24,32.38c1.68,1.69,2.13,4.24,1.14,6.4l-13.71,29.85c-.75,1.64-.81,3.52-.16,5.2l8.31,21.41c.67,1.73,2.04,3.11,3.77,3.79l32.62,12.91c2.17.86,3.6,2.96,3.6,5.3v45.84c0,2.39-1.49,4.53-3.73,5.35l-31.48,11.57c-1.75.64-3.15,1.99-3.86,3.71l-8.82,21.26c-.7,1.68-.68,3.58.06,5.25l13.67,31c.94,2.13.49,4.62-1.14,6.29l-32.84,33.53c-1.73,1.77-4.4,2.22-6.61,1.11l-30-14.93c-1.77-.88-3.83-.93-5.64-.14l-20.92,9.11c-1.7.74-3.02,2.16-3.63,3.91l-11.16,31.88c-.8,2.29-2.96,3.82-5.38,3.82h-46.39c-2.43,0-4.6-1.55-5.39-3.85l-10.83-31.56c-.63-1.82-2.01-3.28-3.79-4.01l-22.25-9.09c-1.75-.71-3.72-.65-5.42.16l-30.07,14.46c-2.21,1.06-4.84.59-6.55-1.16l-32.64-33.47c-1.67-1.71-2.09-4.28-1.06-6.44l14.34-30.01c.83-1.74.87-3.75.11-5.52l-9.18-21.34c-.73-1.69-2.11-3-3.84-3.63l-31.68-11.59c-2.25-.82-3.74-2.96-3.74-5.35v-47.12c0-2.42,1.53-4.58,3.82-5.38l31.98-11.15c1.79-.62,3.22-1.97,3.96-3.72l8.74-20.81c.73-1.73.69-3.69-.1-5.4l-14.43-31.02c-1.01-2.17-.56-4.73,1.13-6.43l32.02-32.16c1.68-1.69,4.24-2.15,6.41-1.16l30.8,14.12c1.7.78,3.65.81,5.37.08Z"/>
      <path class="cls-3" d="M268.88,167.28l9.85-28.51c.79-2.29,2.95-3.83,5.38-3.83h26.71c2.41,0,4.55,1.52,5.36,3.78l10.5,29.53c.53,1.5,1.67,2.7,3.13,3.33l33.09,14.13c1.49.64,3.19.61,4.66-.09l28.26-13.32c2.17-1.02,4.75-.57,6.45,1.12l18.62,18.62c1.69,1.69,2.14,4.26,1.13,6.43l-13.36,28.58c-.68,1.46-.71,3.14-.09,4.62l14.17,33.61c.61,1.46,1.8,2.59,3.29,3.13l29.17,10.67c2.22.81,3.7,2.9,3.73,5.26l.38,26.52c.03,2.42-1.47,4.6-3.75,5.43l-29.05,10.55c-1.48.54-2.67,1.66-3.29,3.11l-14.23,33.28c-.65,1.51-.61,3.22.1,4.7l13.48,28.01c1.03,2.14.62,4.69-1.02,6.4l-19.13,19.97c-1.68,1.75-4.28,2.25-6.48,1.24l-28.69-13.17c-1.47-.68-3.16-.69-4.65-.04l-31.93,13.94c-1.4.61-2.49,1.75-3.04,3.18l-11.21,29.2c-.84,2.2-2.96,3.65-5.31,3.65h-27.39c-2.43,0-4.6-1.55-5.39-3.85l-9.47-27.78c-.51-1.51-1.63-2.73-3.09-3.37l-33.86-14.94c-1.51-.67-3.23-.64-4.72.06l-28.04,13.21c-2.17,1.02-4.74.57-6.44-1.12l-19.66-19.59c-1.71-1.7-2.16-4.3-1.12-6.48l13.86-29.03c.7-1.47.74-3.16.11-4.66l-13.67-32.41c-.61-1.45-1.8-2.59-3.28-3.13l-29.81-10.94c-2.24-.82-3.73-2.95-3.73-5.34v-26.85c0-2.38,1.48-4.51,3.71-5.34l30.31-11.22c1.48-.55,2.67-1.69,3.28-3.16l13.41-32.32c.62-1.48.58-3.16-.11-4.61l-13.5-28.55c-1.03-2.19-.57-4.79,1.15-6.49l19.52-19.22c1.71-1.68,4.29-2.11,6.46-1.07l27.72,13.34c1.5.72,3.25.75,4.77.07l33.65-14.93c1.44-.64,2.55-1.85,3.07-3.34Z"/>
      <circle class="cls-2" cx="297.64" cy="297.64" r="65.29"/>
      <circle class="cls-3" cx="297.64" cy="297.64" r="51.78"/>
    </g>
  </g>
</svg>