<?xml version="1.0" encoding="UTF-8"?>
<svg id="_レイヤー_1" data-name="レイヤー 1" xmlns="http://www.w3.org/2000/svg" xmlns:xlink="http://www.w3.org/1999/xlink" viewBox="0 0 595.28 595.28">
  <defs>
    <style>
      .cls-1 {
        fill: none;
      }

      .cls-2 {
        fill: #231815;
      }

      .cls-3 {
        clip-path: url(#clippath);
      }
    </style>
    <clipPath id="clippath">
      <path class="cls-1" d="M10.14,79.53v436.21h614.2V79.53H10.14ZM204.72,454.6l.98-82.12c.42-34.74,28.69-62.68,63.43-62.68h10.04l-2.76-6.53h.04c-26.73-13.45-45.07-41.11-45.07-73.07,0-45.16,36.61-81.77,81.77-81.77s81.77,36.61,81.77,81.77c0,33.68-20.36,62.59-49.44,75.12h.02s-1.66,4.82-1.66,4.82l8.4-.08c37.26.34,62.94,28.09,63.53,62.62l1.01,79.5c-98.67,57.46-212.08,2.43-212.08,2.43Z"/>
    </clipPath>
  </defs>
  <g class="cls-3">
    <circle class="cls-2" cx="188.07" cy="208.31" r="70.05"/>
    <path class="cls-2" d="M231.38,298.38h-86.61c-27.72,0-50.19,22.47-50.19,50.19v87.14s41.44,19.86,93.5,21.23c5.72.15,11.31.01,16.73-.36-.01-.63-.06-1.26-.07-1.89-.01-1.35.57-2.56,1.46-3.54.9-.98,2.24-1.41,3.54-1.46,1.25-.06,2.67.6,3.54,1.46.91.91,1.45,2.25,1.46,3.54,0,.32.02.63.03.95,38.84-4.69,66.8-19.94,66.8-19.94v-87.14c0-27.72-22.47-50.19-50.19-50.19Z"/>
    <path class="cls-2" d="M476.74,298.38h-86.61c-27.72,0-50.19,22.47-50.19,50.19v87.14s27.92,13.38,66.72,18.93c.03-.7.07-1.4.14-2.1,0-.02,0-.05,0-.07-.03.2-.05.41-.08.61.02-.13.03-.26.03-.39,0-.11.03-.22.04-.33,0-.3.03-.6.1-.9.1-.56.29-1.09.59-1.6.13-.17.26-.33.39-.5.11-.16.23-.32.36-.47l.03-.04s.03-.03.05-.04c.8-.86,1.96-1.42,3.48-1.42.35-.01.69.02,1.02.1,1.04.19,1.87.68,2.48,1.34,0,0,.02.02.03.03.02.02.03.04.05.06.04.04.07.08.11.13.4.41.7.88.88,1.42.31.6.46,1.24.43,1.93,0,.02,0,.04,0,.07,0,0,0,0,0,.01-.03.19-.05.39-.08.58,0,.08-.01.17-.02.25-.08.84-.03,1.72-.07,2.57,5.46.55,11.08.94,16.83,1.09,52.06,1.37,93.5-21.23,93.5-21.23v-87.14c0-27.72-22.47-50.19-50.19-50.19Z"/>
    <circle class="cls-2" cx="433.43" cy="208.31" r="70.05"/>
  </g>
  <path class="cls-2" d="M217.25,466.7v-91.55c0-29.12,22.47-52.73,50.19-52.73h86.61c27.72,0,50.19,23.61,50.19,52.73v91.55s-41.44,23.75-93.5,22.31-93.5-22.31-93.5-22.31Z"/>
  <circle class="cls-2" cx="313.8" cy="232.88" r="70.05"/>
</svg>