<?xml version="1.0" encoding="UTF-8"?>
<svg id="_レイヤー_1" xmlns="http://www.w3.org/2000/svg" version="1.1" viewBox="0 0 548.73 525.83">
  <!-- Generator: Adobe Illustrator 30.5.1, SVG Export Plug-In . SVG Version: 2.1.4 Build 3)  -->
  <defs>
    <style>
      .st0 {
        fill: #fff;
        stroke: #231815;
        stroke-miterlimit: 10;
        stroke-width: 30px;
      }
    </style>
  </defs>
  <path class="st0" d="M298.14,32.28l45.25,139.26c2.65,8.17,10.26,13.7,18.85,13.7h146.43c24.23,0,34.3,31.01,14.7,45.25l-118.45,86.08c-6.94,5.05-9.85,13.98-7.2,22.15l45.25,139.26c7.49,23.04-18.88,42.21-38.49,27.97l-118.45-86.08c-6.94-5.05-16.35-5.05-23.3,0l-118.45,86.08c-19.6,14.24-45.98-4.93-38.49-27.97l45.25-139.26c2.65-8.17-.26-17.11-7.2-22.15L25.36,230.48c-19.6-14.24-9.53-45.25,14.7-45.25h146.43c8.59,0,16.2-5.53,18.85-13.7l45.24-139.26c7.49-23.04,40.09-23.04,47.58,0h-.02Z"/>
</svg>