<?xml version="1.0" encoding="UTF-8"?>
<svg id="_レイヤー_1" data-name="レイヤー 1" xmlns="http://www.w3.org/2000/svg" viewBox="0 0 595.28 595.28">
  <defs>
    <style>
      .cls-1 {
        fill: #231815;
      }

      .cls-2 {
        fill: #fff;
      }
    </style>
  </defs>
  <path class="cls-1" d="M183.04,199.32l23.13.24,24.51-44.36c2.07-3.75,6.02-6.08,10.3-6.08h124.67c4.39,0,8.42,2.45,10.45,6.35l22.9,44.09h71.71c6.41,0,11.61,5.19,11.62,11.61l.25,198.56c0,6.42-5.2,11.64-11.62,11.64H133.64c-6.42,0-11.62-5.2-11.62-11.62v-197.63c0-6.35,5.1-11.52,11.44-11.62l24.5-.38v-16.08c0-1.74,1.41-3.15,3.15-3.15h18.79c1.74,0,3.15,1.41,3.15,3.15v15.28Z"/>
  <circle class="cls-2" cx="302.51" cy="310.57" r="83.8"/>
  <circle class="cls-2" cx="444.05" cy="238.8" r="13.43"/>
  <circle class="cls-1" cx="302.51" cy="310.57" r="60.91"/>
</svg>