<?xml version="1.0" encoding="UTF-8"?>
<svg id="_レイヤー_1" data-name="レイヤー 1" xmlns="http://www.w3.org/2000/svg" viewBox="0 0 346.66 324.81">
  <defs>
    <style>
      .cls-1 {
        fill: #fff;
        stroke: #231815;
        stroke-miterlimit: 10;
        stroke-width: 10px;
      }
    </style>
  </defs>
  <path class="cls-1" d="M341.66,35.62v203.01c0,16.92-12.73,30.63-28.42,30.63h-97.32l-36.46,47.53c-3.1,4.03-9.17,4.03-12.26,0l-36.47-47.53H33.42c-15.7,0-28.42-13.71-28.42-30.63V35.62c0-16.91,12.72-30.62,28.42-30.62h279.82c15.69,0,28.42,13.71,28.42,30.62Z"/>
  <g>
    <ellipse class="cls-1" cx="173.33" cy="74.78" rx="38.96" ry="43.28"/>
    <path class="cls-1" d="M135.74,86.25l29.52,84.09c2.87,8.17,13.27,8.17,16.14,0l29.52-84.09"/>
  </g>
  <circle class="cls-1" cx="173.33" cy="223.95" r="19.57"/>
</svg>