<?xml version="1.0" encoding="UTF-8"?>
<svg id="_レイヤー_1" data-name="レイヤー 1" xmlns="http://www.w3.org/2000/svg" xmlns:xlink="http://www.w3.org/1999/xlink" viewBox="0 0 595.28 595.28">
  <defs>
    <style>
      .cls-1 {
        fill: none;
      }

      .cls-2, .cls-3 {
        stroke: #231815;
        stroke-miterlimit: 10;
        stroke-width: 10px;
      }

      .cls-2, .cls-4 {
        fill: #fff;
      }

      .cls-3, .cls-5 {
        fill: #231815;
      }

      .cls-6 {
        clip-path: url(#clippath);
      }
    </style>
    <clipPath id="clippath">
      <path class="cls-1" d="M607.4,550.32H-7.58V54.32h614.99v496ZM299.91,238.61c-35.19,0-63.71,28.53-63.71,63.71s28.53,63.71,63.71,63.71,63.71-28.53,63.71-63.71-28.53-63.71-63.71-63.71Z"/>
    </clipPath>
  </defs>
  <g class="cls-6">
    <g>
      <path class="cls-5" d="M219.62,146.32l26.75-11.28c2.06-.87,3.68-2.54,4.48-4.63l15.3-39.9c1.04-2.71,3.64-4.5,6.55-4.5h53.75c2.88,0,5.46,1.76,6.52,4.43l15.38,38.8c.81,2.04,2.4,3.67,4.42,4.53l26.98,11.49c2.09.89,4.46.87,6.54-.05l37.64-16.67c2.66-1.18,5.76-.59,7.81,1.46l39.67,39.84c2.07,2.08,2.63,5.22,1.4,7.88l-16.88,36.73c-.93,2.02-1,4.33-.19,6.4l10.22,26.35c.83,2.13,2.51,3.82,4.63,4.67l40.14,15.89c2.68,1.06,4.43,3.64,4.43,6.52v56.41c0,2.94-1.83,5.57-4.59,6.58l-38.74,14.24c-2.15.79-3.88,2.45-4.75,4.56l-10.85,26.17c-.86,2.07-.83,4.41.07,6.46l16.83,38.15c1.16,2.62.6,5.69-1.41,7.74l-40.41,41.27c-2.13,2.17-5.41,2.73-8.14,1.37l-36.92-18.38c-2.17-1.08-4.71-1.15-6.94-.18l-25.74,11.21c-2.1.91-3.72,2.66-4.47,4.82l-13.74,39.23c-.98,2.81-3.64,4.7-6.62,4.7h-57.08c-3,0-5.66-1.9-6.63-4.74l-13.33-38.84c-.77-2.24-2.47-4.04-4.66-4.94l-27.38-11.18c-2.15-.88-4.57-.8-6.66.2l-37,17.79c-2.71,1.31-5.96.73-8.06-1.42l-40.17-41.19c-2.05-2.1-2.57-5.27-1.31-7.92l17.64-36.93c1.02-2.14,1.07-4.61.13-6.79l-11.3-26.26c-.89-2.07-2.6-3.69-4.72-4.47l-38.98-14.27c-2.76-1.01-4.6-3.64-4.6-6.59v-57.98c0-2.98,1.89-5.64,4.7-6.62l39.35-13.72c2.2-.77,3.97-2.43,4.87-4.58l10.75-25.61c.9-2.13.85-4.55-.13-6.64l-17.76-38.18c-1.24-2.67-.69-5.82,1.39-7.91l39.41-39.58c2.07-2.08,5.22-2.65,7.89-1.43l37.9,17.37c2.09.96,4.49,1,6.61.1Z"/>
      <path class="cls-2" d="M264.52,141.9l12.13-35.09c.98-2.82,3.63-4.71,6.62-4.71h32.87c2.96,0,5.61,1.87,6.6,4.66l12.91,36.34c.65,1.84,2.05,3.33,3.85,4.09l40.72,17.39c1.84.79,3.93.75,5.73-.11l34.78-16.39c2.67-1.26,5.85-.71,7.94,1.38l22.91,22.91c2.08,2.08,2.64,5.25,1.39,7.91l-16.43,35.17c-.84,1.79-.88,3.86-.11,5.68l17.44,41.36c.76,1.79,2.22,3.19,4.05,3.86l35.9,13.14c2.73,1,4.55,3.57,4.59,6.48l.46,32.64c.04,2.98-1.81,5.66-4.61,6.68l-35.75,12.98c-1.82.66-3.29,2.05-4.05,3.83l-17.51,40.95c-.79,1.86-.75,3.97.13,5.79l16.59,34.47c1.27,2.63.77,5.77-1.25,7.88l-23.54,24.57c-2.06,2.15-5.27,2.76-7.98,1.52l-35.3-16.2c-1.81-.83-3.89-.85-5.72-.05l-39.3,17.16c-1.72.75-3.06,2.16-3.73,3.91l-13.79,35.93c-1.04,2.71-3.64,4.49-6.54,4.49h-33.7c-3,0-5.66-1.91-6.63-4.74l-11.66-34.19c-.63-1.85-2.01-3.36-3.8-4.15l-41.66-18.39c-1.86-.82-3.98-.79-5.81.07l-34.5,16.25c-2.67,1.26-5.84.71-7.92-1.37l-24.2-24.1c-2.11-2.1-2.66-5.3-1.38-7.98l17.06-35.73c.86-1.81.91-3.89.13-5.74l-16.82-39.88c-.75-1.79-2.22-3.18-4.04-3.85l-36.69-13.47c-2.76-1.01-4.59-3.64-4.59-6.57v-33.04c0-2.93,1.82-5.55,4.57-6.57l37.3-13.81c1.83-.68,3.29-2.08,4.04-3.88l16.5-39.77c.76-1.83.71-3.89-.14-5.68l-16.62-35.14c-1.27-2.69-.7-5.89,1.42-7.98l24.02-23.65c2.11-2.07,5.28-2.6,7.95-1.32l34.12,16.41c1.85.89,4,.92,5.87.09l41.41-18.37c1.78-.79,3.14-2.28,3.78-4.11Z"/>
      <circle class="cls-3" cx="299.91" cy="302.32" r="80.35"/>
      <circle class="cls-4" cx="299.91" cy="302.32" r="63.71"/>
    </g>
  </g>
</svg>