<?xml version="1.0" encoding="UTF-8"?>
<svg id="_レイヤー_1" xmlns="http://www.w3.org/2000/svg" version="1.1" viewBox="0 0 396.4 583.5">
  <!-- Generator: Adobe Illustrator 30.5.1, SVG Export Plug-In . SVG Version: 2.1.4 Build 3)  -->
  <defs>
    <style>
      .st0 {
        stroke-miterlimit: 10;
        stroke-width: 12px;
      }

      .st0, .st1 {
        fill: none;
        stroke: #231815;
      }

      .st1 {
        stroke-miterlimit: 10;
        stroke-width: 9px;
      }

      .st2 {
        fill: #231815;
      }
    </style>
  </defs>
  <path class="st0" d="M388.49,94.37l-237.04,399.37c-4.03,6.78-12.8,9.02-19.58,5l-113.81-67.55c-6.62-3.93-8.79-12.49-4.87-19.09L250.08,12.99c4.01-6.76,12.77-9.01,19.55-4.99l114.1,67.72c6.45,3.83,8.59,12.2,4.76,18.65h0Z"/>
  <path class="st1" d="M8.49,426c-1.78-1.02-.3-10.39-.3-8.35l-3.69,155.03c0,4.75,5.07,7.8,9.27,5.58l128.85-73.17c5.09-2.69-2.27-3.48-7.27-6.34L8.51,426h-.02Z"/>
  <polygon class="st2" points="6.05 507.55 67.24 546.18 9.59 576.03 6.05 507.55"/>
  <path class="st2" d="M297.34,90.62h0c5.69,3.38,7.56,10.73,4.19,16.42L120.6,411.87c-3.38,5.69-10.73,7.56-16.42,4.19h0c-5.69-3.38-7.56-10.73-4.19-16.42L280.92,94.8c3.38-5.69,10.73-7.56,16.42-4.19Z"/>
</svg>