<?xml version="1.0" encoding="UTF-8"?>
<svg id="_レイヤー_1" data-name="レイヤー 1" xmlns="http://www.w3.org/2000/svg" viewBox="0 0 595.28 595.28">
  <defs>
    <style>
      .cls-1 {
        fill: #fff100;
        stroke: #231815;
        stroke-miterlimit: 10;
        stroke-width: 4px;
      }
    </style>
  </defs>
  <path class="cls-1" d="M318.17,105.3l39.05,120.2c2.29,7.05,8.86,11.82,16.27,11.82h126.38c20.91,0,29.61,26.76,12.69,39.05l-102.24,74.29c-5.99,4.36-8.5,12.07-6.21,19.12l39.05,120.2c6.46,19.89-16.3,36.43-33.22,24.14l-102.24-74.29c-5.99-4.36-14.11-4.36-20.11,0l-102.24,74.29c-16.92,12.29-39.68-4.25-33.22-24.14l39.05-120.2c2.29-7.05-.22-14.77-6.21-19.12l-102.24-74.29c-16.92-12.29-8.22-39.05,12.69-39.05h126.38c7.41,0,13.98-4.77,16.27-11.82l39.05-120.2c6.46-19.89,34.6-19.89,41.06,0Z"/>
</svg>