<?xml version="1.0" encoding="UTF-8"?>
<svg id="_レイヤー_1" data-name="レイヤー 1" xmlns="http://www.w3.org/2000/svg" viewBox="0 0 595.28 595.28">
  <defs>
    <style>
      .cls-1 {
        fill: none;
        stroke: #231815;
        stroke-miterlimit: 10;
        stroke-width: 26px;
      }
    </style>
  </defs>
  <path class="cls-1" d="M306.49,171.16l129.66,200.08c8.43,13.01,13.38,28.05,13.79,43.54.5,18.98-5.47,42.12-31.34,58.82-24.02,15.5-47.16,13.02-65.06,5.91-17.56-6.97-32.34-19.51-42.66-35.33l-153.74-235.87c-6.77-10.39-10.54-22.53-10.3-34.92.28-15.17,6.16-33.86,28.51-47.94,24.31-15.31,45.39-8.37,59.19.63,8.46,5.52,15.54,12.9,21.01,21.39l117.98,182.95c5.34,8.07,8.84,16.42,8.59,26.09-.23,8.84-3.63,19.77-13.31,26.12-21.51,14.11-41.09,8.46-52.61-6.07-6.9-8.71-97.9-147.96-97.9-147.96"/>
</svg>