<?xml version="1.0" encoding="UTF-8"?>
<svg id="_レイヤー_1" xmlns="http://www.w3.org/2000/svg" xmlns:xlink="http://www.w3.org/1999/xlink" version="1.1" viewBox="0 0 595.24 480.08">
  <!-- Generator: Adobe Illustrator 30.5.1, SVG Export Plug-In . SVG Version: 2.1.4 Build 3)  -->
  <defs>
    <style>
      .st0 {
        fill: none;
      }

      .st1 {
        fill: #231815;
      }

      .st2 {
        fill: #fff;
      }

      .st3 {
        clip-path: url(#clippath);
      }
    </style>
    <clipPath id="clippath">
      <path class="st0" d="M595.24,480.08H0V0h595.24v480.08ZM297.62,178.37c-34.05,0-61.67,27.61-61.67,61.67s27.61,61.67,61.67,61.67,61.67-27.61,61.67-61.67-27.61-61.67-61.67-61.67Z"/>
    </clipPath>
  </defs>
  <g class="st3">
    <g>
      <path class="st1" d="M219.9,89.04l25.89-10.91c1.99-.85,3.56-2.45,4.34-4.48l14.82-38.61c1.01-2.62,3.53-4.36,6.34-4.36h52.03c2.79,0,5.29,1.7,6.31,4.29l14.89,37.55c.79,1.98,2.32,3.55,4.28,4.38l26.12,11.12c2.02.86,4.32.85,6.34-.05l36.43-16.13c2.57-1.14,5.57-.57,7.56,1.42l38.4,38.57c2,2.01,2.54,5.05,1.36,7.62l-16.33,35.55c-.89,1.95-.96,4.19-.19,6.19l9.9,25.5c.8,2.06,2.43,3.7,4.49,4.51l38.85,15.38c2.58,1.02,4.29,3.53,4.29,6.31v54.6c0,2.85-1.77,5.4-4.44,6.37l-37.49,13.78c-2.08.76-3.75,2.37-4.6,4.42l-10.51,25.32c-.83,2-.81,4.26.07,6.25l16.28,36.92c1.12,2.54.58,5.5-1.36,7.49l-39.11,39.94c-2.06,2.11-5.24,2.64-7.87,1.32l-35.73-17.78c-2.11-1.05-4.56-1.11-6.72-.17l-24.92,10.85c-2.02.88-3.6,2.57-4.32,4.66l-13.29,37.97c-.95,2.73-3.53,4.55-6.41,4.55h-55.25c-2.89,0-5.48-1.85-6.42-4.59l-12.9-37.59c-.75-2.17-2.39-3.91-4.51-4.78l-26.5-10.83c-2.08-.85-4.43-.77-6.46.19l-35.81,17.22c-2.63,1.26-5.76.7-7.8-1.38l-38.88-39.86c-1.99-2.04-2.49-5.1-1.26-7.67l17.08-35.74c.99-2.07,1.04-4.47.13-6.57l-10.93-25.42c-.87-2.01-2.51-3.57-4.57-4.32l-37.73-13.8c-2.68-.98-4.45-3.53-4.45-6.37v-56.12c0-2.88,1.82-5.46,4.55-6.41l38.09-13.28c2.13-.74,3.84-2.35,4.72-4.43l10.41-24.79c.87-2.06.82-4.39-.12-6.43l-17.19-36.95c-1.2-2.58-.67-5.63,1.35-7.66l38.14-38.3c2-2.01,5.05-2.56,7.63-1.38l36.68,16.82c2.02.93,4.35.96,6.4.1h-.06Z"/>
      <path class="st2" d="M263.37,84.78l11.73-33.96c.94-2.73,3.51-4.56,6.41-4.56h31.81c2.87,0,5.42,1.81,6.38,4.5l12.51,35.17c.63,1.79,1.99,3.22,3.73,3.97l39.41,16.83c1.77.76,3.8.73,5.55-.11l33.66-15.86c2.58-1.21,5.66-.68,7.68,1.33l22.18,22.18c2.01,2.01,2.55,5.07,1.35,7.66l-15.91,34.04c-.81,1.74-.85,3.74-.11,5.5l16.88,40.03c.73,1.74,2.14,3.08,3.92,3.73l34.74,12.71c2.64.96,4.41,3.45,4.44,6.26l.45,31.59c.04,2.88-1.75,5.48-4.47,6.47l-34.6,12.57c-1.76.64-3.18,1.98-3.92,3.7l-16.95,39.64c-.77,1.8-.73,3.84.12,5.6l16.06,33.36c1.23,2.55.74,5.59-1.21,7.62l-22.78,23.79c-2,2.08-5.1,2.68-7.72,1.48l-34.17-15.69c-1.75-.81-3.76-.82-5.54-.05l-38.03,16.6c-1.67.73-2.97,2.08-3.62,3.79l-13.35,34.78c-1,2.62-3.53,4.35-6.32,4.35h-32.62c-2.89,0-5.48-1.85-6.42-4.59l-11.28-33.09c-.61-1.8-1.94-3.25-3.68-4.01l-40.33-17.79c-1.8-.8-3.85-.76-5.62.07l-33.4,15.73c-2.58,1.21-5.65.68-7.67-1.33l-23.42-23.33c-2.04-2.02-2.57-5.12-1.33-7.72l16.51-34.58c.83-1.75.88-3.76.13-5.55l-16.28-38.6c-.73-1.73-2.14-3.08-3.91-3.73l-35.51-13.03c-2.67-.98-4.44-3.51-4.44-6.36v-31.98c0-2.83,1.76-5.37,4.42-6.36l36.1-13.36c1.76-.66,3.18-2.01,3.91-3.76l15.97-38.49c.74-1.76.69-3.76-.13-5.49l-16.08-34c-1.23-2.61-.68-5.71,1.37-7.73l23.25-22.89c2.04-2,5.11-2.51,7.69-1.27l33.02,15.89c1.79.86,3.87.89,5.68.08l40.08-17.78c1.72-.76,3.04-2.2,3.66-3.98l.04.04Z"/>
      <circle class="st1" cx="297.62" cy="240.04" r="77.76"/>
      <circle class="st2" cx="297.62" cy="240.04" r="61.67"/>
    </g>
  </g>
</svg>